<svg xmlns="http://www.w3.org/2000/svg" width="170" height="51" fill="none" viewBox="0 0 170 51">
  <path fill="#000" d="M163.607 49.406H6.399a5.767 5.767 0 0 1-5.767-5.768V6.396A5.767 5.767 0 0 1 6.399.63h157.208a5.766 5.766 0 0 1 5.767 5.767v37.242a5.766 5.766 0 0 1-5.767 5.768Z"/>
  <mask id="a" width="170" height="51" x="0" y="0" maskUnits="userSpaceOnUse" style="mask-type:luminance">
    <path fill="#fff" d="M0 0h170v50.78H0V0Z"/>
  </mask>
  <g mask="url(#a)">
    <path fill="#A7A9AB" d="M6.396 1.26A5.142 5.142 0 0 0 1.26 6.396v37.242a5.142 5.142 0 0 0 5.136 5.136h157.211a5.142 5.142 0 0 0 5.136-5.136V6.396a5.142 5.142 0 0 0-5.136-5.136H6.397Zm157.211 48.778H6.397c-3.528 0-6.397-2.872-6.397-6.4V6.396c0-3.527 2.869-6.4 6.396-6.4h157.211c3.528 0 6.396 2.873 6.396 6.4v37.242c0 3.528-2.868 6.4-6.396 6.4Z"/>
  </g>
  <path fill="#fff" d="m58.951 13.095-.647-2.027c-.158-.5-.293-1.059-.415-1.535h-.024c-.12.476-.244 1.047-.388 1.535l-.634 2.027h2.108ZM56.6 14.226l-.708 2.331h-1.55l2.636-8.221h1.913l2.67 8.221h-1.608l-.744-2.331m4.594-3.606.965 3.009c.17.524.29 1 .4 1.489h.036c.11-.489.244-.952.403-1.49l.952-3.008h1.572l-2.268 5.938H64.39l-2.21-5.938m10.476 3.033c-1.062-.012-2.075.207-2.075 1.11 0 .587.378.855.854.855.608 0 1.038-.39 1.181-.818.04-.11.04-.22.04-.33v-.817Zm1.462 1.477c0 .537.024 1.062.098 1.425H72.86l-.107-.656h-.04c-.35.46-.973.79-1.755.79-1.196 0-1.864-.863-1.864-1.767 0-1.489 1.327-2.255 3.521-2.242v-.098c0-.39-.155-1.038-1.205-1.038-.586 0-1.196.183-1.599.44l-.293-.977c.44-.268 1.209-.522 2.148-.522 1.901 0 2.45 1.206 2.45 2.512m2.123-2.377h1.498v5.938H76.24V10.62Zm.741-.855c-.497 0-.827-.366-.827-.805 0-.464.34-.818.843-.818.51 0 .827.354.839.818 0 .439-.33.805-.84.805m2.9 6.793h1.501V7.885h-1.501v8.673Zm6.817-2.905c-1.062-.012-2.075.207-2.075 1.11 0 .587.378.855.854.855.61 0 1.038-.39 1.184-.818.037-.11.037-.22.037-.33v-.817Zm1.462 1.477c0 .537.024 1.062.097 1.425H86.92l-.11-.656h-.036c-.354.46-.977.79-1.758.79-1.193 0-1.864-.863-1.864-1.767 0-1.489 1.33-2.255 3.524-2.242v-.098c0-.39-.158-1.038-1.208-1.038-.586 0-1.196.183-1.596.44l-.293-.977c.44-.268 1.205-.522 2.145-.522 1.901 0 2.45 1.206 2.45 2.512m3.622 1.108c0 .122.012.244.037.354.158.61.683 1.05 1.327 1.05.94 0 1.514-.745 1.514-1.95 0-1.05-.5-1.905-1.502-1.905-.61 0-1.168.44-1.327 1.099-.025.11-.049.244-.049.39v.962Zm-1.501-6.22h1.501v3.55h.024c.367-.574 1.01-.95 1.902-.95 1.452 0 2.487 1.206 2.474 3.012 0 2.133-1.352 3.195-2.694 3.195-.77 0-1.45-.293-1.877-1.025h-.024l-.074.891h-1.281c.024-.403.049-1.062.049-1.66m7.668 1.66h1.499V7.885h-1.499v8.673Zm7.339-3.598c.013-.549-.231-1.452-1.229-1.452-.928 0-1.319.842-1.38 1.452h2.609Zm-2.609 1.047c.037 1.074.879 1.538 1.831 1.538.693 0 1.181-.11 1.645-.269l.22 1.023c-.513.223-1.221.378-2.072.378-1.929 0-3.064-1.18-3.064-2.997 0-1.647 1.001-3.195 2.905-3.195 1.926 0 2.56 1.584 2.56 2.89 0 .281-.024.5-.048.632m7.497 1.599c.852 0 1.45-.83 1.45-2.035 0-.928-.415-2.002-1.437-2.002-1.062 0-1.49 1.037-1.49 2.026 0 1.144.574 2.011 1.462 2.011h.015Zm-.048 1.086c-1.673 0-2.976-1.147-2.976-3.06 0-1.953 1.279-3.147 3.073-3.147 1.767 0 2.951 1.242 2.951 3.049 0 2.182-1.538 3.158-3.036 3.158m4.8-4.306c0-.683-.021-1.257-.046-1.77h1.303l.074.892h.036c.269-.464.916-1.023 1.904-1.023 1.035 0 2.109.669 2.109 2.549v3.521h-1.501v-3.35c0-.855-.318-1.502-1.133-1.502-.598 0-1.013.427-1.171.879a1.389 1.389 0 0 0-.074.476v3.497h-1.501m12.292-7.461v1.523h1.425v1.123h-1.425v2.609c0 .732.195 1.098.766 1.098.269 0 .415-.012.586-.06l.024 1.131c-.219.089-.622.16-1.086.16-.558 0-1.01-.184-1.291-.486-.329-.342-.476-.891-.476-1.672v-2.78h-.842v-1.123h.842V9.509m4.571-1.624h1.502v3.537h.024c.183-.28.44-.512.745-.671a2.134 2.134 0 0 1 1.034-.266c1.013 0 2.072.669 2.072 2.573v3.5h-1.498v-3.341c0-.855-.317-1.514-1.147-1.514-.583 0-.998.39-1.169.842a1.345 1.345 0 0 0-.061.452v3.561h-1.502m11.182-3.598c.012-.549-.232-1.452-1.233-1.452-.928 0-1.316.842-1.377 1.452h2.61Zm-2.61 1.047c.037 1.074.876 1.538 1.828 1.538a4.75 4.75 0 0 0 1.645-.269l.223 1.023c-.513.223-1.221.378-2.075.378-1.926 0-3.061-1.18-3.061-2.997 0-1.647 1.001-3.195 2.902-3.195 1.926 0 2.561 1.584 2.561 2.89 0 .281-.025.5-.049.632M37.94 24.529c-.039-4.068 3.33-6.048 3.486-6.14-1.907-2.783-4.864-3.161-5.905-3.192-2.481-.26-4.889 1.49-6.152 1.49-1.291 0-3.241-1.463-5.337-1.42-2.704.043-5.23 1.608-6.616 4.035-2.857 4.952-.727 12.227 2.014 16.231 1.373 1.96 2.972 4.15 5.068 4.071 2.051-.085 2.817-1.306 5.292-1.306 2.453 0 3.174 1.306 5.313 1.257 2.2-.036 3.585-1.968 4.907-3.949 1.587-2.246 2.221-4.458 2.246-4.571-.052-.018-4.272-1.63-4.315-6.506ZM33.9 12.567c1.102-1.38 1.862-3.26 1.648-5.164-1.596.073-3.591 1.105-4.742 2.454-1.016 1.19-1.928 3.14-1.69 4.97 1.794.135 3.634-.902 4.785-2.26Zm28.79 19.728-1.416-4.373c-.15-.445-.43-1.498-.846-3.152h-.048c-.165.711-.434 1.764-.797 3.152l-1.392 4.373h4.498Zm4.894 6.986h-2.859l-1.565-4.92h-5.438l-1.493 4.92h-2.783l5.395-16.748h3.327m16.549 10.66c0-1.178-.266-2.146-.797-2.909-.58-.793-1.358-1.193-2.334-1.193a2.78 2.78 0 0 0-1.8.66 3.089 3.089 0 0 0-1.06 1.73 3.5 3.5 0 0 0-.122.814v2.014c0 .88.269 1.62.806 2.225.54.607 1.239.906 2.1.906 1.012 0 1.8-.387 2.358-1.168.568-.779.849-1.804.849-3.08Zm2.734-.101c0 2.054-.555 3.68-1.666 4.87-.995 1.062-2.231 1.59-3.702 1.59-1.593 0-2.734-.574-3.43-1.715h-.049V44.2H69.92V31.178c0-1.29-.03-2.615-.098-3.976h2.36l.149 1.917h.052c.894-1.444 2.252-2.164 4.073-2.164 1.422 0 2.616.565 3.565 1.69.952 1.13 1.43 2.61 1.43 4.447Zm11.154.101c0-1.178-.266-2.146-.797-2.909-.58-.793-1.358-1.193-2.334-1.193-.663 0-1.264.223-1.8.66-.54.442-.889 1.015-1.053 1.73-.086.33-.126.6-.126.814v2.014c0 .88.266 1.62.803 2.225.54.607 1.239.906 2.102.906 1.01 0 1.798-.387 2.36-1.168.56-.779.845-1.804.845-3.08Zm2.73-.101c0 2.054-.551 3.68-1.662 4.87-.995 1.062-2.228 1.59-3.702 1.59-1.59 0-2.731-.574-3.43-1.715h-.046V44.2H83.81V31.178c0-1.29-.034-2.615-.098-3.976h2.36l.149 1.917h.052c.89-1.444 2.249-2.164 4.07-2.164 1.426 0 2.613.565 3.568 1.69.952 1.13 1.425 2.61 1.425 4.447Zm15.534 1.492c0 1.422-.495 2.582-1.49 3.479-1.092.976-2.609 1.465-4.559 1.465-1.803 0-3.25-.348-4.345-1.044l.622-2.234a7.378 7.378 0 0 0 3.882 1.065c1.01 0 1.797-.225 2.362-.68.562-.458.842-1.068.842-1.831 0-.678-.229-1.254-.692-1.718-.464-.464-1.236-.894-2.314-1.294-2.932-1.096-4.397-2.698-4.397-4.803 0-1.377.513-2.506 1.541-3.385 1.025-.878 2.393-1.321 4.098-1.321 1.526 0 2.793.268 3.803.796l-.672 2.188c-.943-.512-2.011-.772-3.204-.772-.946 0-1.681.232-2.209.696-.446.415-.672.922-.672 1.517 0 .662.254 1.208.769 1.639.446.396 1.258.827 2.436 1.293 1.44.58 2.499 1.258 3.179 2.036.678.778 1.02 1.749 1.02 2.908Zm8.868-5.368h-2.957v5.862c0 1.493.521 2.237 1.568 2.237.476 0 .876-.04 1.19-.122l.074 2.036c-.525.201-1.224.299-2.085.299-1.059 0-1.889-.324-2.487-.968-.595-.647-.894-1.733-.894-3.256v-6.088h-1.764v-2.014h1.764v-2.21l2.634-.796v3.006h2.957m10.561 6.028c0-1.115-.241-2.067-.723-2.866-.558-.965-1.364-1.447-2.408-1.447-1.077 0-1.898.482-2.459 1.447-.482.8-.717 1.77-.717 2.917 0 1.114.235 2.066.717 2.863.58.964 1.391 1.446 2.438 1.446 1.022 0 1.828-.488 2.408-1.47.497-.813.744-1.777.744-2.89Zm2.783-.086c0 1.855-.528 3.378-1.589 4.571-1.111 1.227-2.585 1.837-4.422 1.837-1.776 0-3.186-.589-4.239-1.764-1.05-1.175-1.575-2.658-1.575-4.446 0-1.874.54-3.405 1.627-4.596 1.083-1.196 2.545-1.791 4.382-1.791 1.773 0 3.201.589 4.275 1.764 1.029 1.147 1.541 2.618 1.541 4.425Zm8.722-3.58a4.657 4.657 0 0 0-.845-.073c-.943 0-1.676.357-2.188 1.068-.446.632-.669 1.425-.669 2.383v6.339h-2.682l.021-8.273a68.53 68.53 0 0 0-.097-3.806h2.337l.098 2.313h.07c.284-.793.732-1.434 1.343-1.913.598-.43 1.245-.647 1.941-.647.247 0 .473.018.671.049m9.439 4.971c.018-.794-.156-1.483-.519-2.063-.464-.745-1.181-1.12-2.139-1.12-.876 0-1.59.366-2.137 1.096-.445.58-.714 1.275-.79 2.087h5.585Zm2.557.696c0 .482-.031.885-.095 1.217h-8.047c.028 1.194.418 2.106 1.166 2.735.677.564 1.556.842 2.633.842 1.191 0 2.277-.19 3.256-.57l.422 1.864c-1.145.494-2.494.747-4.053.747-1.871 0-3.341-.552-4.41-1.657-1.065-1.098-1.602-2.578-1.602-4.434 0-1.822.495-3.338 1.493-4.547 1.04-1.293 2.45-1.937 4.22-1.937 1.739 0 3.061.643 3.955 1.937.711 1.026 1.062 2.295 1.062 3.803Z"/>
</svg>
