<svg width="30" height="31" viewBox="0 0 30 31" fill="none" xmlns="http://www.w3.org/2000/svg">
<g id="devicon:google" clip-path="url(#clip0_129_878)">
<path id="Vector" d="M10.4508 1.34311C7.45335 2.38296 4.86834 4.35663 3.07548 6.97421C1.28262 9.5918 0.376419 12.7153 0.489976 15.886C0.603533 19.0567 1.73087 22.1074 3.70638 24.59C5.6819 27.0726 8.40148 28.8563 11.4657 29.6791C13.9499 30.3201 16.5526 30.3482 19.05 29.7611C21.3125 29.2529 23.4042 28.1658 25.1203 26.6064C26.9065 24.9338 28.2029 22.806 28.8703 20.4517C29.5955 17.8915 29.7246 15.1992 29.2477 12.5814H15.2977V18.3681H23.3766C23.2151 19.2911 22.8691 20.1719 22.3593 20.958C21.8495 21.7441 21.1863 22.4193 20.4094 22.9431C19.423 23.5959 18.3109 24.035 17.1446 24.2322C15.9749 24.4497 14.7752 24.4497 13.6055 24.2322C12.4199 23.9873 11.2984 23.498 10.3125 22.7955C8.72851 21.6742 7.53912 20.0812 6.9141 18.2439C6.27868 16.3721 6.27868 14.343 6.9141 12.4712C7.359 11.1592 8.09449 9.96468 9.06566 8.97671C10.177 7.82533 11.5841 7.00233 13.1324 6.59798C14.6808 6.19363 16.3106 6.22358 17.843 6.68452C19.0402 7.05184 20.1349 7.69392 21.0399 8.55952C21.9508 7.65327 22.8602 6.74468 23.768 5.83374C24.2368 5.3439 24.7477 4.87749 25.2094 4.37593C23.8278 3.09042 22.2063 2.09008 20.4375 1.43218C17.2165 0.262621 13.6922 0.231191 10.4508 1.34311Z" fill="#EEF4FA"/>
<path id="Vector_2" d="M10.4509 1.34315C13.692 0.230475 17.2163 0.261079 20.4376 1.42987C22.2066 2.09224 23.8275 3.09741 25.2071 4.38769C24.7384 4.88925 24.2438 5.358 23.7657 5.8455C22.8563 6.75331 21.9478 7.658 21.0399 8.55956C20.135 7.69396 19.0402 7.05188 17.8431 6.68456C16.3111 6.222 14.6814 6.19033 13.1326 6.59302C11.5839 6.99571 10.176 7.81721 9.06338 8.96738C8.09221 9.95535 7.35672 11.1499 6.91182 12.4619L2.05322 8.70019C3.7923 5.2515 6.80342 2.61352 10.4509 1.34315Z" fill="#E33629"/>
<path id="Vector_3" d="M0.764007 12.4268C1.02496 11.1325 1.45852 9.87909 2.05307 8.7002L6.91166 12.4713C6.27625 14.3431 6.27625 16.3722 6.91166 18.2439C5.29291 19.4939 3.67338 20.7502 2.05307 22.0127C0.565141 19.0509 0.111349 15.6764 0.764007 12.4268Z" fill="#F8BD00"/>
<path id="Vector_4" d="M15.2977 12.5791H29.2477C29.7246 15.1969 29.5955 17.8892 28.8703 20.4494C28.2029 22.8037 26.9065 24.9315 25.1203 26.6041C23.5524 25.3807 21.9774 24.1666 20.4094 22.9432C21.1868 22.4188 21.8503 21.7429 22.3601 20.956C22.87 20.169 23.2157 19.2872 23.3766 18.3635H15.2977C15.2953 16.4369 15.2977 14.508 15.2977 12.5791Z" fill="#587DBD"/>
<path id="Vector_5" d="M2.05078 22.0126C3.67109 20.7626 5.29063 19.5064 6.90938 18.2439C7.53564 20.0819 8.72673 21.6749 10.3125 22.7955C11.3014 23.4948 12.4254 23.9801 13.6125 24.2205C14.7822 24.438 15.9819 24.438 17.1516 24.2205C18.3179 24.0233 19.43 23.5842 20.4164 22.9314C21.9844 24.1548 23.5594 25.3689 25.1273 26.5923C23.4115 28.1526 21.3197 29.2405 19.057 29.7494C16.5596 30.3365 13.9569 30.3083 11.4727 29.6673C9.5079 29.1427 7.67268 28.2179 6.08203 26.9509C4.39858 25.6141 3.02352 23.9296 2.05078 22.0126Z" fill="#319F43"/>
</g>
<defs>
<clipPath id="clip0_129_878">
<rect width="30" height="30" fill="white" transform="translate(0 0.356445)"/>
</clipPath>
</defs>
</svg>
