<svg xmlns="http://www.w3.org/2000/svg" width="170" height="51" fill="none" viewBox="0 0 170 51">
  <g clip-path="url(#a)">
    <mask id="b" width="170" height="51" x="0" y="0" maskUnits="userSpaceOnUse" style="mask-type:luminance">
      <path fill="#fff" d="M169.408 0H.606v50.642h168.802V0Z"/>
    </mask>
    <g mask="url(#b)">
      <path fill="#B6B6B6" d="M157.502 0H9.999a16.97 16.97 0 0 0-2.506.223c-.823.14-1.62.403-2.363.783a8.068 8.068 0 0 0-2.026 1.472 7.966 7.966 0 0 0-1.472 2.026A8.275 8.275 0 0 0 .842 6.9 15.95 15.95 0 0 0 .62 9.403c-.02.388-.02.766-.02 1.15v29.539c0 .388 0 .766.02 1.155.008.838.083 1.674.222 2.501.138.823.401 1.62.78 2.364a8.038 8.038 0 0 0 3.498 3.517 8.33 8.33 0 0 0 2.363.79c.829.136 1.666.209 2.506.22h150.008c.837-.01 1.672-.084 2.498-.22a8.553 8.553 0 0 0 2.388-.79 7.818 7.818 0 0 0 2.025-1.472 7.925 7.925 0 0 0 1.479-2.025 8.243 8.243 0 0 0 .772-2.363c.141-.827.218-1.664.233-2.502V9.416a16.655 16.655 0 0 0-.233-2.502 8.347 8.347 0 0 0-.772-2.363 8.112 8.112 0 0 0-3.494-3.538 8.395 8.395 0 0 0-2.388-.773 16.663 16.663 0 0 0-2.498-.223h-1.151L157.502 0Z"/>
    </g>
    <mask id="c" width="170" height="51" x="0" y="0" maskUnits="userSpaceOnUse" style="mask-type:luminance">
      <path fill="#fff" d="M169.408 0H.606v50.642h168.802V0Z"/>
    </mask>
    <g mask="url(#c)">
      <path fill="#000" d="M11.16 49.548h-1.132a15.97 15.97 0 0 1-2.336-.203 7.428 7.428 0 0 1-2.07-.675 6.983 6.983 0 0 1-3.021-3.015 7.223 7.223 0 0 1-.675-2.073 15.19 15.19 0 0 1-.206-2.343c0-.263-.02-1.14-.02-1.14V10.553s0-.864.02-1.118a15 15 0 0 1 .202-2.346 7.169 7.169 0 0 1 .676-2.08A6.732 6.732 0 0 1 3.87 3.272a7.02 7.02 0 0 1 1.753-1.28 7.357 7.357 0 0 1 2.066-.675 15.627 15.627 0 0 1 2.343-.206h149.963c.778.006 1.555.074 2.322.202a7.321 7.321 0 0 1 2.087.676 6.966 6.966 0 0 1 3.018 3.038 7.22 7.22 0 0 1 .676 2.063c.129.781.201 1.571.215 2.363V41.24c-.011.776-.083 1.55-.213 2.316a7.1 7.1 0 0 1-.674 2.087 7.034 7.034 0 0 1-3.019 3.008 7.256 7.256 0 0 1-2.082.675c-.774.125-1.555.193-2.337.202H11.157l.002.021Z"/>
    </g>
    <mask id="d" width="170" height="51" x="0" y="0" maskUnits="userSpaceOnUse" style="mask-type:luminance">
      <path fill="#fff" d="M169.408 0H.606v50.642h168.802V0Z"/>
    </mask>
    <g mask="url(#d)">
      <path fill="#fff" d="M63.263 34.187h-5.938l-1.442 3.964h-2.61l5.807-14.808h2.465l5.939 14.808h-2.732l-1.489-3.964Zm-5.182-2.026h4.423l-1.584-4.24a30.518 30.518 0 0 1-.641-1.941 66.134 66.134 0 0 1-.625 1.92l-1.573 4.261Z"/>
    </g>
    <mask id="e" width="170" height="51" x="0" y="0" maskUnits="userSpaceOnUse" style="mask-type:luminance">
      <path fill="#fff" d="M169.408 0H.606v50.642h168.802V0Z"/>
    </mask>
    <g mask="url(#e)">
      <path fill="#fff" d="M68.534 29.822c0-.817-.027-1.718-.081-2.701h2.363c.089.463.15.93.183 1.4a4.476 4.476 0 0 1 3.376-1.606 3.804 3.804 0 0 1 3.561 2.316 7.03 7.03 0 0 1 .578 3.038 7.575 7.575 0 0 1-.675 3.302 4.726 4.726 0 0 1-1.844 2.073 5.267 5.267 0 0 1-2.738.706 6.724 6.724 0 0 1-2.218-.378v4.568l-2.525.216.02-12.934Zm6.637 5.628c.514-.675.773-1.688.773-3.039 0-1.23-.213-2.131-.641-2.7a2.025 2.025 0 0 0-1.688-.831 2.726 2.726 0 0 0-1.35.337 5.071 5.071 0 0 0-1.186.929v5.908c.28.132.575.23.878.29.327.071.66.107.993.108a2.621 2.621 0 0 0 2.221-1.002Z"/>
    </g>
    <mask id="f" width="170" height="51" x="0" y="0" maskUnits="userSpaceOnUse" style="mask-type:luminance">
      <path fill="#fff" d="M169.408 0H.606v50.642h168.802V0Z"/>
    </mask>
    <g mask="url(#f)">
      <path fill="#fff" d="M80.05 29.822c0-.817-.027-1.718-.081-2.701h2.363c.092.462.154.93.186 1.4.983-1.07 2.109-1.606 3.376-1.606a3.804 3.804 0 0 1 3.562 2.316c.415.957.612 1.995.577 3.038a7.575 7.575 0 0 1-.658 3.302 4.726 4.726 0 0 1-1.847 2.073 5.258 5.258 0 0 1-2.738.706 6.724 6.724 0 0 1-2.218-.378v4.568l-2.525.216.003-12.934Zm6.648 5.628c.513-.691.77-1.704.77-3.039 0-1.23-.213-2.131-.639-2.7a2.025 2.025 0 0 0-1.688-.831 2.737 2.737 0 0 0-1.35.337c-.44.25-.839.562-1.185.929v5.908c.28.13.575.228.878.29.326.071.658.107.992.108a2.626 2.626 0 0 0 2.222-1.002Z"/>
    </g>
    <mask id="g" width="170" height="51" x="0" y="0" maskUnits="userSpaceOnUse" style="mask-type:luminance">
      <path fill="#fff" d="M169.408 0H.606v50.642h168.802V0Z"/>
    </mask>
    <g mask="url(#g)">
      <path fill="#fff" d="M94.675 37.451a6.141 6.141 0 0 1-2.515-2.59 8.502 8.502 0 0 1-.878-3.987 8.338 8.338 0 0 1 1.013-4.237 6.527 6.527 0 0 1 2.755-2.616 8.625 8.625 0 0 1 3.91-.875c.82-.003 1.639.092 2.437.284a10.36 10.36 0 0 1 2.161.77l-.655 1.941a8.964 8.964 0 0 0-3.845-.959 5.38 5.38 0 0 0-2.701.675 4.49 4.49 0 0 0-1.806 1.938 6.8 6.8 0 0 0-.642 3.086c-.017.96.15 1.913.493 2.809.31.793.858 1.472 1.567 1.945a4.727 4.727 0 0 0 2.7.715 8.99 8.99 0 0 0 1.472-.125 7.452 7.452 0 0 0 1.381-.357v-3.012h-3.423v-1.961h5.878v6.242c-.853.397-1.746.702-2.664.908a12.4 12.4 0 0 1-2.775.317 7.842 7.842 0 0 1-3.863-.911Z"/>
    </g>
    <mask id="h" width="170" height="51" x="0" y="0" maskUnits="userSpaceOnUse" style="mask-type:luminance">
      <path fill="#fff" d="M169.408 0H.606v50.642h168.802V0Z"/>
    </mask>
    <g mask="url(#h)">
      <path fill="#fff" d="M112.947 38.15a9.71 9.71 0 0 1-.176-1.462 4.88 4.88 0 0 1-1.516 1.182 4.507 4.507 0 0 1-2.11.486 3.973 3.973 0 0 1-1.735-.375 2.847 2.847 0 0 1-1.239-1.124 3.425 3.425 0 0 1-.462-1.833 3.139 3.139 0 0 1 1.157-2.56c.77-.639 2.054-.957 3.853-.955.67 0 1.339.047 2.002.142v-.216c0-.973-.207-1.66-.621-2.06a2.493 2.493 0 0 0-1.79-.597 7.064 7.064 0 0 0-1.728.236 9.096 9.096 0 0 0-1.628.56l-.398-1.836a9.702 9.702 0 0 1 1.776-.564 10.4 10.4 0 0 1 2.333-.257 6.074 6.074 0 0 1 2.43.436 3.19 3.19 0 0 1 1.564 1.492c.414.89.607 1.866.563 2.846v4.39c0 .45.027 1.14.081 2.072l-2.356-.003Zm-1.513-2.026a4.073 4.073 0 0 0 1.287-.942v-2.026a16.381 16.381 0 0 0-1.688-.11c-1.042 0-1.764.168-2.164.505a1.689 1.689 0 0 0-.598 1.351 1.553 1.553 0 0 0 .436 1.209c.329.277.751.419 1.181.395a3.537 3.537 0 0 0 1.546-.382Z"/>
    </g>
    <mask id="i" width="170" height="51" x="0" y="0" maskUnits="userSpaceOnUse" style="mask-type:luminance">
      <path fill="#fff" d="M169.408 0H.606v50.642h168.802V0Z"/>
    </mask>
    <g mask="url(#i)">
      <path fill="#fff" d="M117.173 35.504V22.472l2.512-.202v12.786a1.59 1.59 0 0 0 .24 1.012.928.928 0 0 0 .763.294 2.72 2.72 0 0 0 .675-.115l.297 1.81a4.359 4.359 0 0 1-.874.23 5.988 5.988 0 0 1-.976.087c-1.758-.011-2.637-.968-2.637-2.87Z"/>
    </g>
    <mask id="j" width="170" height="51" x="0" y="0" maskUnits="userSpaceOnUse" style="mask-type:luminance">
      <path fill="#fff" d="M169.408 0H.606v50.642h168.802V0Z"/>
    </mask>
    <g mask="url(#j)">
      <path fill="#fff" d="M123.456 35.504V22.472l2.516-.202v12.786c-.036.355.048.711.239 1.012a.94.94 0 0 0 .764.294 2.72 2.72 0 0 0 .675-.115l.293 1.81a4.29 4.29 0 0 1-.871.23c-.324.056-.65.085-.978.087-1.756-.011-2.635-.968-2.638-2.87Z"/>
    </g>
    <mask id="k" width="170" height="51" x="0" y="0" maskUnits="userSpaceOnUse" style="mask-type:luminance">
      <path fill="#fff" d="M169.408 0H.606v50.642h168.802V0Z"/>
    </mask>
    <g mask="url(#k)">
      <path fill="#fff" d="M138.27 32.958h-7.215c.115 2.311 1.216 3.467 3.302 3.467a7.071 7.071 0 0 0 1.59-.19 9.494 9.494 0 0 0 1.557-.505l.554 1.728a9.431 9.431 0 0 1-4.159.898 6.08 6.08 0 0 1-2.965-.675 4.25 4.25 0 0 1-1.816-1.911 6.792 6.792 0 0 1-.608-3.005 7.096 7.096 0 0 1 .645-3.146 4.683 4.683 0 0 1 1.793-2.026 5.028 5.028 0 0 1 2.653-.695 4.46 4.46 0 0 1 2.61.732 4.345 4.345 0 0 1 1.553 1.948c.348.858.52 1.776.506 2.701v.679Zm-2.461-1.604a3.172 3.172 0 0 0-.675-1.978 2.03 2.03 0 0 0-1.583-.676 2.138 2.138 0 0 0-1.601.676 3.522 3.522 0 0 0-.834 1.971l4.693.007Z"/>
    </g>
    <mask id="l" width="170" height="51" x="0" y="0" maskUnits="userSpaceOnUse" style="mask-type:luminance">
      <path fill="#fff" d="M169.408 0H.606v50.642h168.802V0Z"/>
    </mask>
    <g mask="url(#l)">
      <path fill="#fff" d="M140.182 29.893c0-.605-.03-1.53-.083-2.769h2.362a30.19 30.19 0 0 1 .192 2.137c.255-.43.544-.839.865-1.222.279-.327.615-.6.993-.807a2.617 2.617 0 0 1 1.292-.314 3.48 3.48 0 0 1 1.013.125l-.316 2.188a2.906 2.906 0 0 0-2.364.338 6.395 6.395 0 0 0-1.442 1.492v7.09h-2.512v-8.258Z"/>
    </g>
    <mask id="m" width="170" height="51" x="0" y="0" maskUnits="userSpaceOnUse" style="mask-type:luminance">
      <path fill="#fff" d="M169.408 0H.606v50.642h168.802V0Z"/>
    </mask>
    <g mask="url(#m)">
      <path fill="#fff" d="M148.222 42.664a6.08 6.08 0 0 1-.909-.219l.459-1.84c.213.057.428.103.645.138.243.044.49.066.736.068 1.125 0 1.963-.72 2.512-2.157l.165-.409-4.068-11.12h2.7l2.067 6.215c.264.8.478 1.614.642 2.44a31.92 31.92 0 0 1 .674-2.39l2.06-6.266h2.542l-4.051 11.172a11.51 11.51 0 0 1-1.239 2.556 4.328 4.328 0 0 1-1.566 1.438c-.68.331-1.43.493-2.184.472a6.898 6.898 0 0 1-1.185-.098Z"/>
    </g>
    <mask id="n" width="170" height="51" x="0" y="0" maskUnits="userSpaceOnUse" style="mask-type:luminance">
      <path fill="#fff" d="M169.408 0H.606v50.642h168.802V0Z"/>
    </mask>
    <g mask="url(#n)">
      <path fill="#fff" d="M53.273 9.244h4.49l-.125 1.087h-3.055v2.103h2.88v1.013h-2.88v2.33H57.8l-.111 1.104h-4.416V9.244Z"/>
    </g>
    <mask id="o" width="170" height="51" x="0" y="0" maskUnits="userSpaceOnUse" style="mask-type:luminance">
      <path fill="#fff" d="M169.408 0H.606v50.642h168.802V0Z"/>
    </mask>
    <g mask="url(#o)">
      <path fill="#fff" d="m60.867 12.985-2.363-3.741h1.498l1.607 2.748 1.688-2.748h1.456l-2.364 3.693 2.556 3.944h-1.52l-1.819-3.005-1.853 3.005h-1.456l2.57-3.896Z"/>
    </g>
    <mask id="p" width="170" height="51" x="0" y="0" maskUnits="userSpaceOnUse" style="mask-type:luminance">
      <path fill="#fff" d="M169.408 0H.606v50.642h168.802V0Z"/>
    </mask>
    <g mask="url(#p)">
      <path fill="#fff" d="M65.913 9.244h2.06c.965 0 1.706.197 2.221.59a2.026 2.026 0 0 1 .77 1.709 2.48 2.48 0 0 1-.338 1.327 2.26 2.26 0 0 1-.962.87c-.443.21-.928.314-1.418.305a5.75 5.75 0 0 1-1.013-.105v2.94h-1.32V9.245Zm3.309 3.41a1.382 1.382 0 0 0 .422-1.077 1.17 1.17 0 0 0-.429-1.013 2.161 2.161 0 0 0-1.266-.31h-.716v2.7a5.1 5.1 0 0 0 .76.078c.443.033.881-.102 1.229-.378Z"/>
    </g>
    <mask id="q" width="170" height="51" x="0" y="0" maskUnits="userSpaceOnUse" style="mask-type:luminance">
      <path fill="#fff" d="M169.408 0H.606v50.642h168.802V0Z"/>
    </mask>
    <g mask="url(#q)">
      <path fill="#fff" d="M72.268 9.244h1.316v6.51h3.16l-.111 1.127h-4.365V9.244Z"/>
    </g>
    <mask id="r" width="170" height="51" x="0" y="0" maskUnits="userSpaceOnUse" style="mask-type:luminance">
      <path fill="#fff" d="M169.408 0H.606v50.642h168.802V0Z"/>
    </mask>
    <g mask="url(#r)">
      <path fill="#fff" d="M78.75 16.506c-.554-.312-1-.782-1.283-1.35a4.387 4.387 0 0 1-.442-2.027 4.517 4.517 0 0 1 .472-2.113c.3-.591.77-1.078 1.35-1.398a4.223 4.223 0 0 1 2.11-.48 3.95 3.95 0 0 1 1.99.477c.55.312.993.783 1.272 1.35.301.624.45 1.31.436 2.002a4.533 4.533 0 0 1-.477 2.137 3.352 3.352 0 0 1-1.35 1.398c-.638.34-1.353.51-2.076.493a3.92 3.92 0 0 1-2.002-.49Zm3.416-.936c.373-.246.662-.6.83-1.013.19-.473.283-.979.274-1.488a4.11 4.11 0 0 0-.243-1.469 2.172 2.172 0 0 0-.776-1.013 2.617 2.617 0 0 0-2.732 0c-.373.26-.663.62-.837 1.04a3.548 3.548 0 0 0-.28 1.435 3.963 3.963 0 0 0 .263 1.486 2.174 2.174 0 0 0 2.15 1.41c.48.012.952-.123 1.351-.388Z"/>
    </g>
    <mask id="s" width="170" height="51" x="0" y="0" maskUnits="userSpaceOnUse" style="mask-type:luminance">
      <path fill="#fff" d="M169.408 0H.606v50.642h168.802V0Z"/>
    </mask>
    <g mask="url(#s)">
      <path fill="#fff" d="M86.123 9.244h2.39a3.17 3.17 0 0 1 1.982.523 1.775 1.775 0 0 1 .675 1.492c.008.37-.075.737-.243 1.067-.146.29-.35.546-.6.753-.224.18-.475.324-.743.425l2.363 3.377h-1.536l-1.989-3.039h-.969v3.039h-1.33V9.244Zm2.07 3.612a1.84 1.84 0 0 0 .847-.185c.237-.114.438-.294.578-.517.139-.238.21-.51.205-.787a.964.964 0 0 0-.364-.84 1.776 1.776 0 0 0-1.06-.267h-.956v2.61l.75-.014Z"/>
    </g>
    <mask id="t" width="170" height="51" x="0" y="0" maskUnits="userSpaceOnUse" style="mask-type:luminance">
      <path fill="#fff" d="M169.408 0H.606v50.642h168.802V0Z"/>
    </mask>
    <g mask="url(#t)">
      <path fill="#fff" d="M92.976 9.244h4.5l-.127 1.087H94.31v2.103h2.853v1.013h-2.88v2.33H97.5l-.098 1.104h-4.426V9.244Z"/>
    </g>
    <mask id="u" width="170" height="51" x="0" y="0" maskUnits="userSpaceOnUse" style="mask-type:luminance">
      <path fill="#fff" d="M169.408 0H.606v50.642h168.802V0Z"/>
    </mask>
    <g mask="url(#u)">
      <path fill="#fff" d="M102.373 9.244h1.317v7.637h-1.317V9.244Z"/>
    </g>
    <mask id="v" width="170" height="51" x="0" y="0" maskUnits="userSpaceOnUse" style="mask-type:luminance">
      <path fill="#fff" d="M169.408 0H.606v50.642h168.802V0Z"/>
    </mask>
    <g mask="url(#v)">
      <path fill="#fff" d="M107.176 10.345h-2.363l.115-1.101h5.942l-.122 1.1h-2.252v6.537h-1.32v-6.537Z"/>
    </g>
    <mask id="w" width="170" height="51" x="0" y="0" maskUnits="userSpaceOnUse" style="mask-type:luminance">
      <path fill="#fff" d="M169.408 0H.606v50.642h168.802V0Z"/>
    </mask>
    <g mask="url(#w)">
      <path fill="#fff" d="M116.593 16.506a3.16 3.16 0 0 1-1.279-1.35 4.346 4.346 0 0 1-.446-2.027 4.515 4.515 0 0 1 .473-2.113c.3-.59.77-1.077 1.35-1.398a4.242 4.242 0 0 1 2.097-.493 3.931 3.931 0 0 1 2.008.49c.551.311.995.782 1.273 1.35.302.624.453 1.31.439 2.002a4.5 4.5 0 0 1-.479 2.137 3.339 3.339 0 0 1-1.351 1.398c-.638.34-1.353.51-2.076.493a3.936 3.936 0 0 1-2.009-.49Zm3.42-.936c.371-.247.659-.6.827-1.013.19-.473.283-.979.274-1.488a4.15 4.15 0 0 0-.243-1.469c-.15-.407-.42-.76-.773-1.013a2.621 2.621 0 0 0-2.735 0c-.373.26-.664.62-.837 1.04a3.606 3.606 0 0 0-.281 1.435 3.968 3.968 0 0 0 .264 1.485c.161.417.442.776.807 1.034a2.3 2.3 0 0 0 1.35.378c.478.01.948-.126 1.347-.389Z"/>
    </g>
    <mask id="x" width="170" height="51" x="0" y="0" maskUnits="userSpaceOnUse" style="mask-type:luminance">
      <path fill="#fff" d="M169.408 0H.606v50.642h168.802V0Z"/>
    </mask>
    <g mask="url(#x)">
      <path fill="#fff" d="M123.969 9.244h1.513l3.778 5.918a24.953 24.953 0 0 1-.047-1.556V9.244h1.222v7.637h-1.465l-3.836-6.013c.037.675.057 1.286.057 1.816v4.197h-1.222V9.244Z"/>
    </g>
    <mask id="y" width="170" height="51" x="0" y="0" maskUnits="userSpaceOnUse" style="mask-type:luminance">
      <path fill="#fff" d="M169.408 0H.606v50.642h168.802V0Z"/>
    </mask>
    <g mask="url(#y)">
      <path fill="#C8102E" fill-rule="evenodd" d="M34.705 9.284H20.691c-6.607 0-9.024 2.418-9.024 9.025v14.024c0 6.607 2.417 9.024 9.024 9.024h14.014c6.607 0 9.028-2.417 9.028-9.024V18.309c.007-6.607-2.41-9.025-9.028-9.025Z" clip-rule="evenodd"/>
    </g>
    <mask id="z" width="170" height="51" x="0" y="0" maskUnits="userSpaceOnUse" style="mask-type:luminance">
      <path fill="#fff" d="M169.408 0H.606v50.642h168.802V0Z"/>
    </mask>
    <g mask="url(#z)">
      <path fill="#fff" d="M18.016 25.321h.85v4.196h-.85v-1.704h-1.92v1.704h-.852v-4.196h.851v1.688h1.921v-1.688Zm4.794 2.4c0 .676-.337 1.047-.952 1.047-.614 0-.959-.371-.959-1.084v-2.363h-.85v2.397c0 1.178.655 1.854 1.796 1.854 1.14 0 1.816-.676 1.816-1.891v-2.36h-.85v2.4Zm9.832.483-.953-2.883h-.698l-.946 2.886-.928-2.886h-.905l1.462 4.196h.706l.948-2.754.952 2.754h.713l1.462-4.196h-.885l-.928 2.883Zm3.335-.496h1.55v-.76h-1.55v-.857h2.249v-.77H35.14v4.186h3.167v-.756h-2.33v-1.043Zm3.343 1.8h.84V25.32h-.84v4.186Zm-13.978-.868-.381.87h-.868l1.833-4.189h.75l1.84 4.19h-.878l-.361-.868-1.935-.003Zm.318-.757h1.28l-.642-1.499-.638 1.5Z"/>
    </g>
    <mask id="A" width="170" height="51" x="0" y="0" maskUnits="userSpaceOnUse" style="mask-type:luminance">
      <path fill="#fff" d="M169.408 0H.606v50.642h168.802V0Z"/>
    </mask>
    <g mask="url(#A)">
      <path fill="#fff" d="M27.703 19.983a5.341 5.341 0 0 1-5.338-5.337h.753a4.585 4.585 0 0 0 9.17 0h.752a5.342 5.342 0 0 1-5.337 5.337Z"/>
    </g>
  </g>
  <defs>
    <clipPath id="a">
      <path fill="#fff" d="M0 0h170v50.638H0z"/>
    </clipPath>
  </defs>
</svg>
