<svg xmlns="http://www.w3.org/2000/svg" width="32" height="32" fill="none" viewBox="0 0 32 32">
  <path fill="#58647C" d="M16 2.667C8.648 2.667 2.666 8.646 2.666 16v5.524C2.666 22.889 3.862 24 5.333 24h1.333A1.333 1.333 0 0 0 8 22.666V15.81a1.333 1.333 0 0 0-1.333-1.333H5.455C6.197 9.316 10.637 5.333 16 5.333s9.802 3.983 10.544 9.143h-1.21A1.333 1.333 0 0 0 24 15.809V24a2.67 2.67 0 0 1-2.667 2.668h-2.666v-1.334h-5.334v4h8A5.339 5.339 0 0 0 26.667 24c1.47 0 2.666-1.11 2.666-2.476V16c0-7.352-5.981-13.334-13.333-13.334Z"/>
</svg>
