<svg xmlns="http://www.w3.org/2000/svg" width="32" height="32" fill="none" viewBox="0 0 32 32">
  <path stroke="#58647C" stroke-linecap="round" stroke-linejoin="round" stroke-width="2" d="m16 20 4-4m0 0-4-4m4 4H5.334m0-6.336V9.6c0-1.493 0-2.24.29-2.81A2.66 2.66 0 0 1 6.79 5.623c.57-.29 1.317-.29 2.81-.29h12.8c1.494 0 2.24 0 2.81.29.502.256.91.663 1.166 1.166.29.569.29 1.315.29 2.806v12.81c0 1.49 0 2.236-.29 2.805a2.67 2.67 0 0 1-1.167 1.165c-.569.29-1.314.29-2.805.29H9.596c-1.49 0-2.237 0-2.806-.29a2.667 2.667 0 0 1-1.166-1.165c-.29-.57-.29-1.317-.29-2.81v-.067"/>
</svg>
