<svg width="32" height="32" viewBox="0 0 32 32" fill="none" xmlns="http://www.w3.org/2000/svg">
<g id="ep:arrow-up-bold">
<path id="Vector" d="M28.7279 10.586C28.3528 10.2111 27.8442 10.0005 27.3139 10.0005C26.7836 10.0005 26.275 10.2111 25.8999 10.586L15.9999 20.486L6.0999 10.586C5.72269 10.2217 5.21749 10.0201 4.69309 10.0247C4.1687 10.0292 3.66707 10.2396 3.29626 10.6104C2.92544 10.9812 2.71511 11.4828 2.71055 12.0072C2.70599 12.5316 2.90758 13.0368 3.2719 13.414L14.5859 24.728C14.961 25.103 15.4696 25.3136 15.9999 25.3136C16.5302 25.3136 17.0388 25.103 17.4139 24.728L28.7279 13.414C29.1028 13.039 29.3135 12.5304 29.3135 12C29.3135 11.4697 29.1028 10.9611 28.7279 10.586Z" fill="#58647C"/>
</g>
</svg>
