<svg width="32" height="32" viewBox="0 0 32 32" fill="none" xmlns="http://www.w3.org/2000/svg">
<g id="ep:arrow-up-bold">
<path id="Vector" d="M28.7279 10.5859C28.3528 10.211 27.8442 10.0003 27.3139 10.0003C26.7836 10.0003 26.275 10.211 25.8999 10.5859L15.9999 20.4859L6.0999 10.5859C5.72269 10.2216 5.21749 10.02 4.69309 10.0246C4.1687 10.0291 3.66707 10.2395 3.29626 10.6103C2.92544 10.9811 2.71511 11.4827 2.71055 12.0071C2.70599 12.5315 2.90758 13.0367 3.2719 13.4139L14.5859 24.7279C14.961 25.1028 15.4696 25.3135 15.9999 25.3135C16.5302 25.3135 17.0388 25.1028 17.4139 24.7279L28.7279 13.4139C29.1028 13.0389 29.3135 12.5302 29.3135 11.9999C29.3135 11.4696 29.1028 10.961 28.7279 10.5859Z" fill="#58647C"/>
</g>
</svg>
