<svg width="32" height="32" viewBox="0 0 32 32" fill="none" xmlns="http://www.w3.org/2000/svg">
<g id="iconoir:privacy-policy">
<g id="Group">
<path id="Vector" d="M26.6663 16.0001V7.66542C26.6664 7.56017 26.6457 7.45594 26.6055 7.3587C26.5652 7.26146 26.5061 7.17312 26.4317 7.09875L22.2343 2.90141C22.0845 2.75134 21.8811 2.66693 21.669 2.66675H6.13301C5.92083 2.66675 5.71735 2.75103 5.56732 2.90106C5.41729 3.05109 5.33301 3.25457 5.33301 3.46675V28.5334C5.33301 28.7456 5.41729 28.9491 5.56732 29.0991C5.71735 29.2491 5.92083 29.3334 6.13301 29.3334H17.333M10.6663 13.3334H21.333M10.6663 8.00008H15.9997M10.6663 18.6668H14.6663" stroke="#58647C" stroke-width="1.5" stroke-linecap="round" stroke-linejoin="round"/>
<path id="Vector_2" d="M21.333 2.66675V7.20008C21.333 7.41225 21.4173 7.61574 21.5673 7.76577C21.7174 7.9158 21.9208 8.00008 22.133 8.00008H26.6663M26.6557 20.1667L30.0637 21.0321C30.4183 21.1227 30.6677 21.4454 30.657 21.8107C30.4277 29.4881 25.9997 30.6667 25.9997 30.6667C25.9997 30.6667 21.5717 29.4881 21.3423 21.8107C21.3382 21.6329 21.3947 21.4589 21.5025 21.3174C21.6104 21.1759 21.7631 21.0753 21.9357 21.0321L25.3437 20.1667C25.7743 20.0574 26.225 20.0574 26.6557 20.1667Z" stroke="#58647C" stroke-width="1.5" stroke-linecap="round" stroke-linejoin="round"/>
</g>
</g>
</svg>
