<svg width="16" height="16" viewBox="0 0 16 16" fill="none" xmlns="http://www.w3.org/2000/svg">
<g id="iconoir:paste-clipboard" clip-path="url(#clip0_762_114)">
<g id="Group">
<path id="Vector" d="M5.6665 2.66666H3.99984C3.64622 2.66666 3.30708 2.80713 3.05703 3.05718C2.80698 3.30723 2.6665 3.64637 2.6665 3.99999V13.3333C2.6665 13.6869 2.80698 14.0261 3.05703 14.2761C3.30708 14.5262 3.64622 14.6667 3.99984 14.6667H11.9998C12.3535 14.6667 12.6926 14.5262 12.9426 14.2761C13.1927 14.0261 13.3332 13.6869 13.3332 13.3333V3.99999C13.3332 3.64637 13.1927 3.30723 12.9426 3.05718C12.6926 2.80713 12.3535 2.66666 11.9998 2.66666H10.3332" stroke="#C6D0E0" stroke-width="1.5" stroke-linecap="round"/>
<path id="Vector_2" d="M5.33301 4.26666V2.99999C5.33301 2.91158 5.36813 2.8268 5.43064 2.76429C5.49315 2.70178 5.57794 2.66666 5.66634 2.66666C5.85034 2.66666 6.00234 2.51732 6.03434 2.33599C6.13301 1.76799 6.51567 0.666656 7.99967 0.666656C9.48367 0.666656 9.86634 1.76799 9.96501 2.33599C9.99701 2.51732 10.149 2.66666 10.333 2.66666C10.4214 2.66666 10.5062 2.70178 10.5687 2.76429C10.6312 2.8268 10.6663 2.91158 10.6663 2.99999V4.26666C10.6663 4.37274 10.6242 4.47448 10.5492 4.5495C10.4742 4.62451 10.3724 4.66666 10.2663 4.66666H5.73301C5.62692 4.66666 5.52518 4.62451 5.45016 4.5495C5.37515 4.47448 5.33301 4.37274 5.33301 4.26666Z" stroke="#C6D0E0" stroke-width="1.5" stroke-linecap="round"/>
</g>
</g>
<defs>
<clipPath id="clip0_762_114">
<rect width="16" height="16" fill="white"/>
</clipPath>
</defs>
</svg>
