<svg xmlns="http://www.w3.org/2000/svg" width="32" height="32" fill="none" viewBox="0 0 32 32">
  <g clip-path="url(#a)">
    <path fill="#262F44" d="M16 2.667c7.364 0 13.333 5.969 13.333 13.333S23.363 29.333 16 29.333c-7.364 0-13.334-5.97-13.334-13.333C2.666 8.636 8.636 2.666 16 2.666Zm0 2.666a10.667 10.667 0 1 0 0 21.334 10.667 10.667 0 0 0 0-21.334Zm0 16A1.333 1.333 0 1 1 16 24a1.333 1.333 0 0 1 0-2.666Zm0-12.666a4.833 4.833 0 0 1 1.797 9.32 1.12 1.12 0 0 0-.407.268c-.058.066-.067.152-.066.24l.01.171a1.333 1.333 0 0 1-2.658.157l-.01-.157v-.333c0-1.537 1.24-2.46 2.14-2.821a2.167 2.167 0 1 0-2.973-2.012 1.333 1.333 0 1 1-2.667 0A4.833 4.833 0 0 1 16 8.666Z"/>
  </g>
  <defs>
    <clipPath id="a">
      <path fill="#fff" d="M0 0h32v32H0z"/>
    </clipPath>
  </defs>
</svg>
