<svg width="24" height="24" viewBox="0 0 24 24" fill="none" xmlns="http://www.w3.org/2000/svg">
<g id="system-uicons:lock">
<g id="Group">
<path id="Vector" d="M7.42878 10.8572L7.42192 8.57721C7.41392 4.00236 8.93964 1.71436 12.0002 1.71436C15.0608 1.71436 16.5842 4.00236 16.5716 8.57721V10.8572M7.42878 10.8572H16.5979C17.1744 10.8573 17.7295 11.0752 18.1521 11.4673C18.5747 11.8594 18.8335 12.3967 18.8768 12.9715L18.8836 13.1498L18.8642 20.0069C18.8624 20.6119 18.6208 21.1916 18.1923 21.6187C17.7639 22.0459 17.1835 22.2858 16.5785 22.2858H7.42878C6.82257 22.2858 6.24119 22.045 5.81254 21.6163C5.38388 21.1877 5.14307 20.6063 5.14307 20.0001V13.1429C5.14307 12.5367 5.38388 11.9553 5.81254 11.5267C6.24119 11.098 6.82257 10.8572 7.42878 10.8572Z" stroke="#2E6FF4" stroke-linecap="round" stroke-linejoin="round"/>
<path id="Vector_2" d="M12.0004 18.286C12.9472 18.286 13.7147 17.5185 13.7147 16.5717C13.7147 15.6249 12.9472 14.8574 12.0004 14.8574C11.0536 14.8574 10.2861 15.6249 10.2861 16.5717C10.2861 17.5185 11.0536 18.286 12.0004 18.286Z" fill="#8D98AF"/>
</g>
</g>
</svg>
