<svg width="32" height="32" viewBox="0 0 32 32" fill="none" xmlns="http://www.w3.org/2000/svg">
<g id="ic:baseline-whatsapp">
<path id="Vector" d="M25.3999 6.54658C24.1775 5.31182 22.7215 4.33281 21.1168 3.66665C19.5121 3.0005 17.7908 2.66053 16.0533 2.66658C8.77328 2.66658 2.83994 8.59992 2.83994 15.8799C2.83994 18.2132 3.45328 20.4799 4.59994 22.4799L2.73328 29.3333L9.73328 27.4933C11.6666 28.5466 13.8399 29.1066 16.0533 29.1066C23.3333 29.1066 29.2666 23.1733 29.2666 15.8932C29.2666 12.3599 27.8933 9.03992 25.3999 6.54658ZM16.0533 26.8666C14.0799 26.8666 12.1466 26.3333 10.4533 25.3333L10.0533 25.0933L5.89328 26.1866L6.99994 22.1333L6.73328 21.7199C5.63694 19.9692 5.0548 17.9456 5.05328 15.8799C5.05328 9.82658 9.98661 4.89325 16.0399 4.89325C18.9733 4.89325 21.7333 6.03992 23.7999 8.11992C24.8233 9.13854 25.6342 10.3501 26.1858 11.6845C26.7374 13.0188 27.0187 14.4494 27.0133 15.8932C27.0399 21.9466 22.1066 26.8666 16.0533 26.8666ZM22.0799 18.6532C21.7466 18.4932 20.1199 17.6933 19.8266 17.5732C19.5199 17.4666 19.3066 17.4132 19.0799 17.7332C18.8533 18.0666 18.2266 18.8132 18.0399 19.0266C17.8533 19.2533 17.6533 19.2799 17.3199 19.1066C16.9866 18.9466 15.9199 18.5866 14.6666 17.4666C13.6799 16.5866 13.0266 15.5066 12.8266 15.1733C12.6399 14.8399 12.7999 14.6666 12.9733 14.4932C13.1199 14.3466 13.3066 14.1066 13.4666 13.9199C13.6266 13.7332 13.6933 13.5866 13.7999 13.3732C13.9066 13.1466 13.8533 12.9599 13.7733 12.7999C13.6933 12.6399 13.0266 11.0133 12.7599 10.3466C12.4933 9.70658 12.2133 9.78658 12.0133 9.77325H11.3733C11.1466 9.77325 10.7999 9.85325 10.4933 10.1866C10.1999 10.5199 9.34661 11.3199 9.34661 12.9466C9.34661 14.5733 10.5333 16.1466 10.6933 16.3599C10.8533 16.5866 13.0266 19.9199 16.3333 21.3466C17.1199 21.6933 17.7333 21.8933 18.2133 22.0399C18.9999 22.2933 19.7199 22.2532 20.2933 22.1732C20.9333 22.0799 22.2533 21.3732 22.5199 20.5999C22.7999 19.8266 22.7999 19.1733 22.7066 19.0266C22.6133 18.8799 22.4133 18.8132 22.0799 18.6532Z" fill="#F4CB3C"/>
</g>
</svg>
