<svg width="32" height="32" viewBox="0 0 32 32" fill="none" xmlns="http://www.w3.org/2000/svg">
<g id="mdi:youtube">
<path id="Vector" d="M13.3333 20.0001L20.2533 16.0001L13.3333 12.0001V20.0001ZM28.7466 9.56008C28.92 10.1867 29.04 11.0267 29.12 12.0934C29.2133 13.1601 29.2533 14.0801 29.2533 14.8801L29.3333 16.0001C29.3333 18.9201 29.12 21.0667 28.7466 22.4401C28.4133 23.6401 27.64 24.4134 26.44 24.7467C25.8133 24.9201 24.6666 25.0401 22.9066 25.1201C21.1733 25.2134 19.5866 25.2534 18.12 25.2534L16 25.3334C10.4133 25.3334 6.93329 25.1201 5.55996 24.7467C4.35996 24.4134 3.58663 23.6401 3.25329 22.4401C3.07996 21.8134 2.95996 20.9734 2.87996 19.9067C2.78663 18.8401 2.74663 17.9201 2.74663 17.1201L2.66663 16.0001C2.66663 13.0801 2.87996 10.9334 3.25329 9.56008C3.58663 8.36008 4.35996 7.58675 5.55996 7.25341C6.18663 7.08008 7.33329 6.96008 9.09329 6.88008C10.8266 6.78675 12.4133 6.74675 13.88 6.74675L16 6.66675C21.5866 6.66675 25.0666 6.88008 26.44 7.25341C27.64 7.58675 28.4133 8.36008 28.7466 9.56008Z" fill="#F4CB3C"/>
</g>
</svg>
