<svg width="16" height="16" viewBox="0 0 16 16" fill="none" xmlns="http://www.w3.org/2000/svg">
<g id="ep:arrow-up-bold">
<path id="Vector" d="M5.29295 1.63605C5.10548 1.82358 5.00017 2.07788 5.00017 2.34305C5.00017 2.60821 5.10548 2.86252 5.29295 3.05005L10.243 8.00005L5.29295 12.95C5.1108 13.1387 5.01 13.3913 5.01228 13.6534C5.01456 13.9156 5.11973 14.1665 5.30514 14.3519C5.49054 14.5373 5.74136 14.6424 6.00355 14.6447C6.26575 14.647 6.51835 14.5462 6.70695 14.364L12.364 8.70705C12.5514 8.51952 12.6567 8.26521 12.6567 8.00005C12.6567 7.73488 12.5514 7.48058 12.364 7.29305L6.70695 1.63605C6.51943 1.44858 6.26512 1.34326 5.99995 1.34326C5.73479 1.34326 5.48048 1.44858 5.29295 1.63605Z" fill="#2E6FF4"/>
</g>
</svg>
