<svg width="32" height="32" viewBox="0 0 32 32" fill="none" xmlns="http://www.w3.org/2000/svg">
<path d="M25.4001 6.54658C24.1777 5.31182 22.7216 4.33281 21.1169 3.66665C19.5122 3.0005 17.7909 2.66053 16.0534 2.66658C8.7734 2.66658 2.84007 8.59992 2.84007 15.8799C2.84007 18.2132 3.4534 20.4799 4.60007 22.4799L2.7334 29.3333L9.7334 27.4933C11.6667 28.5466 13.8401 29.1066 16.0534 29.1066C23.3334 29.1066 29.2667 23.1733 29.2667 15.8932C29.2667 12.3599 27.8934 9.03992 25.4001 6.54658ZM16.0534 26.8666C14.0801 26.8666 12.1467 26.3333 10.4534 25.3333L10.0534 25.0933L5.8934 26.1866L7.00006 22.1333L6.7334 21.7199C5.63706 19.9692 5.05492 17.9456 5.0534 15.8799C5.0534 9.82658 9.98673 4.89325 16.0401 4.89325C18.9734 4.89325 21.7334 6.03992 23.8001 8.11992C24.8234 9.13854 25.6343 10.3501 26.1859 11.6845C26.7375 13.0188 27.0188 14.4494 27.0134 15.8932C27.0401 21.9466 22.1067 26.8666 16.0534 26.8666ZM22.0801 18.6532C21.7467 18.4932 20.1201 17.6933 19.8267 17.5732C19.5201 17.4666 19.3067 17.4132 19.0801 17.7332C18.8534 18.0666 18.2267 18.8132 18.0401 19.0266C17.8534 19.2533 17.6534 19.2799 17.3201 19.1066C16.9867 18.9466 15.9201 18.5866 14.6667 17.4666C13.6801 16.5866 13.0267 15.5066 12.8267 15.1733C12.6401 14.8399 12.8001 14.6666 12.9734 14.4932C13.1201 14.3466 13.3067 14.1066 13.4667 13.9199C13.6267 13.7332 13.6934 13.5866 13.8001 13.3732C13.9067 13.1466 13.8534 12.9599 13.7734 12.7999C13.6934 12.6399 13.0267 11.0133 12.7601 10.3466C12.4934 9.70658 12.2134 9.78658 12.0134 9.77325H11.3734C11.1467 9.77325 10.8001 9.85325 10.4934 10.1866C10.2001 10.5199 9.34673 11.3199 9.34673 12.9466C9.34673 14.5733 10.5334 16.1466 10.6934 16.3599C10.8534 16.5866 13.0267 19.9199 16.3334 21.3466C17.1201 21.6933 17.7334 21.8933 18.2134 22.0399C19.0001 22.2933 19.7201 22.2532 20.2934 22.1732C20.9334 22.0799 22.2534 21.3732 22.5201 20.5999C22.8001 19.8266 22.8001 19.1733 22.7067 19.0266C22.6134 18.8799 22.4134 18.8132 22.0801 18.6532Z" fill="white"/>
</svg>
