<svg xmlns="http://www.w3.org/2000/svg" width="100" height="101" fill="none" viewBox="0 0 100 101">
  <path fill="#58647C" d="M50 8.823C27 8.823 8.333 27.49 8.333 50.49S27 92.157 50 92.157 91.666 73.49 91.666 50.49 73 8.823 50 8.823Zm-19.375 68.75c5.458-3.916 12.125-6.25 19.375-6.25s13.916 2.334 19.375 6.25C63.916 81.49 57.25 83.823 50 83.823s-13.917-2.333-19.375-6.25Zm44.958-5.75a41.445 41.445 0 0 0-51.167 0 33.155 33.155 0 0 1-7.75-21.333c0-18.417 14.917-33.333 33.334-33.333 18.416 0 33.333 14.916 33.333 33.333 0 8.125-2.917 15.542-7.75 21.333Z"/>
  <path fill="#58647C" d="M49.82 25.657c-7.989 0-14.487 6.497-14.487 14.486 0 7.988 6.498 14.486 14.486 14.486s14.486-6.498 14.486-14.486c0-7.989-6.498-14.486-14.486-14.486Zm0 20.694a6.2 6.2 0 0 1-6.21-6.208 6.2 6.2 0 0 1 6.21-6.209 6.2 6.2 0 0 1 6.208 6.209 6.2 6.2 0 0 1-6.209 6.208Z"/>
</svg>
