<svg width="33" height="32" viewBox="0 0 33 32" fill="none" xmlns="http://www.w3.org/2000/svg">
<g id="iconamoon:notification-fill">
<path id="Vector" fill-rule="evenodd" clip-rule="evenodd" d="M16.5 1.33325C16.1178 1.3332 15.74 1.41532 15.3923 1.57403C15.0446 1.73275 14.7351 1.96436 14.4847 2.25317C14.2343 2.54197 14.049 2.88123 13.9412 3.24794C13.8334 3.61464 13.8057 4.00024 13.86 4.37858C11.9275 4.94915 10.2314 6.12954 9.02506 7.74348C7.81869 9.35741 7.16678 11.3183 7.16667 13.3333V23.9999H5.83333C5.47971 23.9999 5.14057 24.1404 4.89052 24.3904C4.64048 24.6405 4.5 24.9796 4.5 25.3332C4.5 25.6869 4.64048 26.026 4.89052 26.2761C5.14057 26.5261 5.47971 26.6666 5.83333 26.6666H27.1667C27.5203 26.6666 27.8594 26.5261 28.1095 26.2761C28.3595 26.026 28.5 25.6869 28.5 25.3332C28.5 24.9796 28.3595 24.6405 28.1095 24.3904C27.8594 24.1404 27.5203 23.9999 27.1667 23.9999H25.8333V13.3333C25.8332 11.3183 25.1813 9.35741 23.9749 7.74348C22.7686 6.12954 21.0725 4.94915 19.14 4.37858C19.1943 4.00024 19.1666 3.61464 19.0588 3.24794C18.951 2.88123 18.7657 2.54197 18.5153 2.25317C18.2649 1.96436 17.9554 1.73275 17.6077 1.57403C17.26 1.41532 16.8822 1.3332 16.5 1.33325ZM19.1667 29.3332C19.1667 29.6869 19.0262 30.026 18.7761 30.2761C18.5261 30.5261 18.187 30.6666 17.8333 30.6666H15.1667C14.813 30.6666 14.4739 30.5261 14.2239 30.2761C13.9738 30.026 13.8333 29.6869 13.8333 29.3332C13.8333 28.9796 13.9738 28.6405 14.2239 28.3904C14.4739 28.1404 14.813 27.9999 15.1667 27.9999H17.8333C18.187 27.9999 18.5261 28.1404 18.7761 28.3904C19.0262 28.6405 19.1667 28.9796 19.1667 29.3332Z" fill="#FAD141"/>
</g>
</svg>
