<svg xmlns="http://www.w3.org/2000/svg" width="32" height="32" fill="none" viewBox="0 0 32 32">
  <path fill="#262F44" d="M26.667 13.333a1.333 1.333 0 0 0-2.667 0h2.667ZM8 13.333a1.333 1.333 0 1 0-2.667 0H8Zm19.057 3.61a1.333 1.333 0 0 0 1.886-1.886l-1.886 1.886ZM16 4l.943-.943a1.333 1.333 0 0 0-1.886 0L16 4ZM3.057 15.057a1.333 1.333 0 1 0 1.886 1.886l-1.886-1.886Zm6.276 14.276h13.334v-2.666H9.333v2.666Zm17.334-4v-12H24v12h2.667ZM8 25.333v-12H5.333v12H8Zm20.943-10.276-12-12-1.886 1.886 12 12 1.886-1.886Zm-13.886-12-12 12 1.886 1.886 12-12-1.886-1.886Zm7.61 26.276a4 4 0 0 0 4-4H24a1.334 1.334 0 0 1-1.333 1.334v2.666ZM9.333 26.667A1.334 1.334 0 0 1 8 25.333H5.333a4 4 0 0 0 4 4v-2.666Z"/>
</svg>
