<svg width="32" height="32" viewBox="0 0 32 32" fill="none" xmlns="http://www.w3.org/2000/svg">
<path d="M13.3332 20.0001L20.2532 16.0001L13.3332 12.0001V20.0001ZM28.7465 9.56008C28.9198 10.1867 29.0398 11.0267 29.1198 12.0934C29.2132 13.1601 29.2532 14.0801 29.2532 14.8801L29.3332 16.0001C29.3332 18.9201 29.1198 21.0667 28.7465 22.4401C28.4132 23.6401 27.6398 24.4134 26.4398 24.7467C25.8132 24.9201 24.6665 25.0401 22.9065 25.1201C21.1732 25.2134 19.5865 25.2534 18.1198 25.2534L15.9998 25.3334C10.4132 25.3334 6.93317 25.1201 5.55984 24.7467C4.35984 24.4134 3.5865 23.6401 3.25317 22.4401C3.07984 21.8134 2.95984 20.9734 2.87984 19.9067C2.7865 18.8401 2.7465 17.9201 2.7465 17.1201L2.6665 16.0001C2.6665 13.0801 2.87984 10.9334 3.25317 9.56008C3.5865 8.36008 4.35984 7.58675 5.55984 7.25341C6.1865 7.08008 7.33317 6.96008 9.09317 6.88008C10.8265 6.78675 12.4132 6.74675 13.8798 6.74675L15.9998 6.66675C21.5865 6.66675 25.0665 6.88008 26.4398 7.25341C27.6398 7.58675 28.4132 8.36008 28.7465 9.56008Z" fill="white"/>
</svg>
