<svg width="32" height="32" viewBox="0 0 32 32" fill="none" xmlns="http://www.w3.org/2000/svg">
<g id="mingcute:phone-fill" clip-path="url(#clip0_701_488)">
<g id="Group">
<path id="Vector" fill-rule="evenodd" clip-rule="evenodd" d="M9.93099 29.5107C11.851 29.4401 17.2923 28.6881 22.991 22.9907C28.6883 17.292 29.439 11.852 29.511 9.93071C29.6177 7.00271 27.375 4.15871 24.7843 3.04804C24.4724 2.91333 24.1307 2.86204 23.793 2.89921C23.4552 2.93638 23.1329 3.06072 22.8577 3.26004C20.7243 4.81471 19.2523 7.16671 17.9883 9.01605C17.7102 9.42235 17.5913 9.91678 17.6543 10.4051C17.7172 10.8934 17.9576 11.3415 18.3297 11.664L20.931 13.596C21.0567 13.6868 21.1451 13.8201 21.18 13.9711C21.2148 14.1222 21.1936 14.2808 21.1203 14.4174C20.531 15.488 19.483 17.0827 18.283 18.2827C17.0817 19.4827 15.4123 20.6 14.267 21.2561C14.1234 21.3367 13.9544 21.3592 13.7947 21.319C13.6349 21.2788 13.4967 21.179 13.4083 21.04L11.715 18.4627C11.4037 18.0492 10.9444 17.7721 10.4334 17.6896C9.92242 17.6071 9.39931 17.7255 8.97366 18.02C7.09766 19.3187 4.90833 20.7654 3.30566 22.8174C3.09016 23.0946 2.95307 23.4246 2.90874 23.7729C2.86441 24.1212 2.91446 24.475 3.05366 24.7974C4.16966 27.4014 6.99366 29.6187 9.93099 29.5107Z" fill="#2E6FF4"/>
</g>
</g>
<defs>
<clipPath id="clip0_701_488">
<rect width="32" height="32" fill="white" transform="matrix(-1 0 0 1 32 0)"/>
</clipPath>
</defs>
</svg>
