<svg xmlns="http://www.w3.org/2000/svg" width="32" height="32" fill="none" viewBox="0 0 32 32">
  <g clip-path="url(#a)">
    <path fill="#262F44" fill-rule="evenodd" d="M5.616 24.497c-1.036.48-2.24-.271-2.377-1.485-.123-1.092-.359-3.624-.359-7.055 0-3.472.24-6.023.363-7.091.133-1.155 1.257-1.83 2.285-1.358.923.424 3.059 1.467 5.847 3.21a61.235 61.235 0 0 1 3.56 2.4c.05-1.42.153-2.839.308-4.252.133-1.155 1.257-1.83 2.285-1.358.923.424 3.059 1.467 5.847 3.21 2.788 1.745 4.688 3.227 5.489 3.88.893.729.915 2.123.056 2.824-.796.649-2.721 2.154-5.487 3.883-2.733 1.71-4.88 2.76-5.817 3.192-1.036.48-2.24-.271-2.377-1.485a58.65 58.65 0 0 1-.299-4.072 60.487 60.487 0 0 1-3.507 2.365c-2.733 1.71-4.88 2.76-5.817 3.192Zm-.15-8.445c0 2.253.106 4.098.209 5.36a55.52 55.52 0 0 0 4.389-2.485 56.402 56.402 0 0 0 4.28-2.95 56.471 56.471 0 0 0-4.223-2.905 55.447 55.447 0 0 0-4.436-2.512 66.11 66.11 0 0 0-.22 5.493Zm12.002-.546c.108.357.108.738 0 1.096.01 1.605.08 3.21.207 4.81 1.5-.761 2.964-1.59 4.389-2.485a56.402 56.402 0 0 0 4.28-2.95 56.471 56.471 0 0 0-4.223-2.905 55.441 55.441 0 0 0-4.436-2.512 65.974 65.974 0 0 0-.217 4.947v-.002Z" clip-rule="evenodd"/>
  </g>
  <defs>
    <clipPath id="a">
      <path fill="#fff" d="M0 0h32v32H0z"/>
    </clipPath>
  </defs>
</svg>
