<svg class="animated" id="freepik_stories-social-ideas" xmlns="http://www.w3.org/2000/svg" xmlns:xlink="http://www.w3.org/1999/xlink" viewBox="0 0 500 500" version="1.1" xmlns:svgjs="http://svgjs.com/svgjs"><style>svg#freepik_stories-social-ideas:not(.animated) .animable {opacity: 0;}svg#freepik_stories-social-ideas.animated #freepik--background-simple--inject-142 {animation: 3s Infinite  linear floating;animation-delay: 0s;}svg#freepik_stories-social-ideas.animated #freepik--Device--inject-142 {animation: 3s Infinite  linear wind;animation-delay: 0.5s;}svg#freepik_stories-social-ideas.animated #freepik--Plants--inject-142 {animation: 1.5s Infinite  linear wind;animation-delay: 0s;}svg#freepik_stories-social-ideas.animated #freepik--social-ideas--inject-142 {animation: 1.5s Infinite  linear heartbeat;animation-delay: 0s;}            @keyframes floating {                0% {                    opacity: 1;                    transform: translateY(0px);                }                50% {                    transform: translateY(-10px);                }                100% {                    opacity: 1;                    transform: translateY(0px);                }            }                    @keyframes wind {                0% {                    transform: rotate( 0deg );                }                25% {                    transform: rotate( 1deg );                }                75% {                    transform: rotate( -1deg );                }            }                    @keyframes heartbeat {                0% {                    transform: scale(1);                }                10% {                    transform: scale(1.1);                }                30% {                    transform: scale(1);                }                40% {                    transform: scale(1);                }                50% {                    transform: scale(1.1);                }                60% {                    transform: scale(1);                }                100% {                    transform: scale(1);                }            }        </style><g id="freepik--background-simple--inject-142" class="animable" style="transform-origin: 247.461px 241.81px;"><path d="M369.26,124.94s-34.63-34-84.56-24.91S210.55,149.19,180,175.46c-16,13.75-38.12,17.34-56.56,27.37C64.47,234.89,65,319.19,105,354.64c34.58,30.69,80.64,37.8,142.78,23.2s106.4-22.72,149.08-76.93S411.56,170.67,369.26,124.94Z" style="fill: rgb(244, 203, 60); transform-origin: 247.461px 241.81px;" id="elw4hbuav4zwc" class="animable"></path><g id="el4328cgzbp18"><path d="M369.26,124.94s-34.63-34-84.56-24.91S210.55,149.19,180,175.46c-16,13.75-38.12,17.34-56.56,27.37C64.47,234.89,65,319.19,105,354.64c34.58,30.69,80.64,37.8,142.78,23.2s106.4-22.72,149.08-76.93S411.56,170.67,369.26,124.94Z" style="fill: rgb(255, 255, 255); opacity: 0.7; transform-origin: 247.461px 241.81px;" class="animable"></path></g></g><g id="freepik--Device--inject-142" class="animable" style="transform-origin: 108.245px 309.165px;"><g style="clip-path: url(&quot;#freepik--clip-path--inject-142&quot;); transform-origin: 108.245px 309.165px;" id="eludkkj3kl76" class="animable"><path d="M96,363.11h32.39a2.34,2.34,0,1,0,0-4.68H96a5.54,5.54,0,0,1-5.34-7l11.49-41.18A2.34,2.34,0,1,0,97.63,309L86.14,350.14a10.21,10.21,0,0,0,9.85,13Z" style="fill: rgb(255, 255, 255); stroke: rgb(38, 50, 56); stroke-linecap: round; stroke-linejoin: round; transform-origin: 108.245px 335.209px;" id="elaldg6bv51iq" class="animable"></path><g id="ela1yx2g6vap7"><rect x="105.66" y="255.29" width="7.39" height="95.5" style="fill: rgb(255, 255, 255); stroke: rgb(38, 50, 56); stroke-linecap: round; stroke-linejoin: round; transform-origin: 109.355px 303.04px; transform: rotate(173.16deg);" class="animable"></rect></g><path d="M100,256.07s-13,46.48,11.37,94.82Z" style="fill: rgb(38, 50, 56); stroke: rgb(38, 50, 56); stroke-linecap: round; stroke-linejoin: round; transform-origin: 103.953px 303.48px;" id="elvuperb9196" class="animable"></path></g></g><g id="freepik--Plants--inject-142" class="animable" style="transform-origin: 375.437px 314.803px;"><path d="M409.52,294.58c.05,0,1-3.45,1-3.67.36-2.61-.47-7.87-3.13-9.16a3.49,3.49,0,0,0-4.75,2.11c-.72,2,.19,4.36,1.26,6C405.13,291.81,409.52,294.58,409.52,294.58Z" style="fill: rgb(244, 203, 60); transform-origin: 406.491px 288.012px;" id="eletm25mzqaj9" class="animable"></path><path d="M357.1,293.44c2.12.92,7.3.81,7.3.81s-1.11-3.4-1.21-3.6c-1.14-2.38-4.73-6.31-7.66-5.91a3.48,3.48,0,0,0-2.8,4.38C353.21,291.14,355.29,292.65,357.1,293.44Z" style="fill: rgb(244, 203, 60); transform-origin: 358.5px 289.483px;" id="el7n8mvgwzh2d" class="animable"></path><path d="M355.25,356.25a2.49,2.49,0,0,0,2,3.14,5.23,5.23,0,0,0,4.13-1.51,16,16,0,0,0,2.6-4.17c.7.24,1.41.48,2.08.75.45.19.9.34,1.35.56l1.32.61c.82.43,1.68.86,2.47,1.29.56.29,1.08.58,1.61.88-.7-.21-2.09-.57-2.21-.59-1.86-.27-5.63.3-6.56,2.19a2.54,2.54,0,0,0-.19.57h7.9c.72-.9,1.3-1.79,1.42-2,.88.49,1.72,1,2.51,1.44l.9.54h2.53c-.86-.51-1.79-1.05-2.81-1.62s-1.84-1-2.82-1.53a30.23,30.23,0,0,0,.84-3.08,18.08,18.08,0,0,0,4.79-1.44c.46.89.9,1.76,1.3,2.58.94,1.92,1.72,3.65,2.35,5.09h1.51c-.71-1.55-1.62-3.47-2.74-5.65-.46-.9-1-1.85-1.51-2.83.17-.14,1-.81,1.88-1.6l.73-.09c.27,1.37.53,2.71.75,4,.4,2.28.72,4.36,1,6.2h1.91c-.31-1.92-.69-4.11-1.17-6.52-.28-1.39-.6-2.88-.94-4.4a38.63,38.63,0,0,0,4-1.9c1.51,1.64,5.38,3.55,5.88,3.8-.52,1.29-1.05,2.55-1.56,3.73-.85,1.95-1.66,3.72-2.41,5.29h2.06c.62-1.4,1.28-2.94,2-4.61.54-1.32,1.09-2.73,1.64-4.19.56.12,5.1,1,7.22.56,1.92-.43,4.25-1.52,5.11-3.42a3.49,3.49,0,0,0-1.93-4.83c-2.8-.94-7.07,2.24-8.64,4.36-.09.13-.94,1.6-1.46,2.53.22-.59.45-1.17.67-1.79.44-1.21.85-2.44,1.3-3.76.19-.65.39-1.3.58-2s.35-1.36.53-2c.38-1.6.69-3.24,1-4.9,1.07.39,4.88,1.72,6.85,1.58s4.43-.86,5.57-2.61a3.49,3.49,0,0,0-1.17-5.06c-2.63-1.36-7.33,1.14-9.2,3-.12.11-1.31,1.6-1.95,2.43.16-1,.32-2,.45-3,.36-2.93.64-5.9.92-8.87.09-.91.19-1.81.29-2.72.38.14,4.87,1.82,7.08,1.66,2-.14,4.43-.86,5.57-2.6a3.5,3.5,0,0,0-1.18-5.07c-2.62-1.35-7.33,1.14-9.2,3-.14.14-1.85,2.28-2.26,2.85.21-2,.44-4,.75-5.93a59.86,59.86,0,0,1,1.7-7.8c.18.07,4.86,1.83,7.12,1.67,2-.13,4.43-.86,5.57-2.6a3.5,3.5,0,0,0-1.17-5.07c-2.63-1.35-7.33,1.14-9.2,3-.13.13-1.43,1.75-2,2.54l-.15-.07a45.11,45.11,0,0,1,3.09-7.41c.68-1.31,1.39-2.53,2.11-3.7.84.42,4.7,2.29,6.75,2.37s4.5-.37,5.82-2a3.49,3.49,0,0,0-.61-5.16c-2.46-1.64-7.41.33-9.47,2-.12.09-1.16,1.12-1.9,1.89.33-.53.67-1.07,1-1.57,1.23-1.86,2.48-3.48,3.59-4.92.64-.81,1.24-1.52,1.8-2.19,1,0,5.22-.15,7.05-1s3.82-2.4,4.25-4.44a3.5,3.5,0,0,0-2.92-4.31c-2.94-.31-6.43,3.71-7.5,6.12-.09.21-1.17,3.63-1.12,3.63h.07c-.56.63-1.15,1.31-1.78,2.07-1.14,1.41-2.43,3-3.71,4.86a63.68,63.68,0,0,0-3.85,6.13,46,46,0,0,0-3.29,7.41l0,.09c0-.86,0-3.28,0-3.47-.34-2.61-2.53-7.47-5.44-8a3.49,3.49,0,0,0-4,3.28c-.17,2.08,1.34,4.16,2.81,5.47,1.65,1.48,6.25,2.91,6.62,3a61.77,61.77,0,0,0-1.94,8c-.29,1.58-.52,3.18-.74,4.79,0-.75,0-1.42,0-1.51-.34-2.62-2.54-7.47-5.44-8a3.49,3.49,0,0,0-4,3.29c-.17,2.07,1.34,4.15,2.8,5.47s5.39,2.63,6.43,3l-.24,1.85c-.35,3-.69,5.92-1.11,8.81-.15,1-.34,2-.52,3,0-.66,0-1.22,0-1.31-.34-2.61-2.53-7.47-5.44-8a3.49,3.49,0,0,0-4,3.28c-.17,2.08,1.34,4.16,2.81,5.47s5,2.5,6.23,2.9c-.21,1-.43,2-.68,3-.19.66-.33,1.31-.55,2l-.63,1.94c-.44,1.22-.89,2.48-1.35,3.66-.32.82-.64,1.6-1,2.38.16-1,.43-3,.43-3.17a13.55,13.55,0,0,0-1.82-6.6,3.29,3.29,0,0,0-.05-.77,3.49,3.49,0,0,0-4.27-3c-2.24.6-3.83,3.81-4.48,6.44a2.61,2.61,0,0,0-1.71-1.33l-.45-1.46c-.18-.66-.46-1.33-.68-2-.57-1.54-1.22-3.08-1.9-4.61,1.1-.26,5-1.26,6.58-2.47s3.22-3.16,3.21-5.24a3.5,3.5,0,0,0-3.78-3.58c-2.93.32-5.48,5-6,7.58,0,.16-.2,2.06-.28,3.1-.42-.92-.83-1.84-1.29-2.75-1.31-2.65-2.72-5.28-4.11-7.91-.43-.81-.85-1.62-1.27-2.43.4-.09,5.07-1.17,6.83-2.52,1.56-1.2,3.21-3.16,3.2-5.24a3.49,3.49,0,0,0-3.77-3.58c-2.94.32-5.49,5-6,7.58,0,.19-.29,2.92-.32,3.62-.92-1.78-1.83-3.57-2.65-5.36a62.58,62.58,0,0,1-2.88-7.44c.19,0,5.07-1.15,6.87-2.54,1.56-1.19,3.22-3.16,3.2-5.24a3.49,3.49,0,0,0-3.77-3.58c-2.94.32-5.49,5-6,7.58,0,.17-.22,2.25-.29,3.24l-.17,0a45.34,45.34,0,0,1-1.5-7.89c-.16-1.46-.24-2.88-.28-4.25.93-.11,5.17-.68,6.93-1.74s3.55-2.79,3.76-4.86a3.51,3.51,0,0,0-3.36-4c-2.95,0-6,4.37-6.81,6.88,0,.13-.34,1.57-.54,2.62,0-.62,0-1.26,0-1.86,0-2.23.15-4.27.29-6.08.09-1,.19-2,.29-2.83.85-.59,4.27-3,5.32-4.72s1.86-4.11,1.1-6.05a3.49,3.49,0,0,0-4.81-2c-2.63,1.35-3.32,6.63-2.88,9.23,0,.23,1,3.68,1.07,3.65l.05,0c-.11.83-.23,1.73-.33,2.71-.18,1.81-.37,3.85-.42,6.1a61.93,61.93,0,0,0,.17,7.24,46,46,0,0,0,1.34,8l0,.09c-.46-.73-1.83-2.73-2-2.87-1.64-1.89-5.78-4.54-8.53-3.82a2.41,2.41,0,0,0-2.89.29c-1.54,1.45-1,5.21-.16,6.91.07.15,1.43,2.32,1.46,2.29l0,0q.12.88.3,1.92c.23,1.28.51,2.73.92,4.28a44.35,44.35,0,0,0,1.54,4.93,33.13,33.13,0,0,0,2.5,5.23l0,.05c-.47-.41-1.8-1.51-1.91-1.58-1.58-1-5.23-2.09-6.87-.76a2.5,2.5,0,0,0-.09,3.71,5.22,5.22,0,0,0,4.28,1c1.57-.22,4.48-2,4.71-2.2a45.51,45.51,0,0,0,3.46,4.78c.73.89,1.49,1.76,2.26,2.62l-.84-.68c-1.58-1-5.23-2.09-6.87-.76a2.49,2.49,0,0,0-.08,3.71,5.2,5.2,0,0,0,4.27,1,16.69,16.69,0,0,0,4.59-2.12l.9,1c1.44,1.56,2.89,3.12,4.27,4.69.28.32.54.65.81,1l-.17.1c-1.59-1-5.21-2.06-6.84-.74a2.5,2.5,0,0,0-.08,3.72,5.23,5.23,0,0,0,4.27,1,5.08,5.08,0,0,0,1.05-.29,4.71,4.71,0,0,0,.16.62,4.28,4.28,0,0,0,.88,1.42,2.42,2.42,0,0,0-2.5,1.32c-.91,1.9,1,5.21,2.34,6.51l1.67,1.26-1.21-.63c-.83-.43-1.66-.82-2.56-1.26l-1.33-.58c-.45-.21-.94-.37-1.41-.55-1.1-.41-2.23-.77-3.39-1.11a16.34,16.34,0,0,0,1.72-4.72c.07-1.41-.22-3.22-1.36-4.18a2.51,2.51,0,0,0-3.7.39c-1.19,1.75.17,5.3,1.33,6.79.07.09,1,1.07,1.55,1.59-.69-.2-1.38-.4-2.09-.58-2-.51-4.13-1-6.21-1.43l-1.9-.44c.13-.25,1.71-3.29,1.79-4.88a5.19,5.19,0,0,0-1.36-4.17,2.51,2.51,0,0,0-3.7.39c-1.19,1.74.17,5.3,1.33,6.79.09.11,1.45,1.51,1.82,1.85-1.4-.33-2.78-.66-4.14-1.05a42.63,42.63,0,0,1-5.38-1.89c.06-.12,1.72-3.28,1.81-4.9.07-1.41-.22-3.22-1.36-4.18a2.51,2.51,0,0,0-3.7.39c-1.19,1.75.17,5.3,1.33,6.79.07.1,1.11,1.17,1.62,1.66l-.07.1a33.14,33.14,0,0,1-5-2.84c-.87-.59-1.67-1.21-2.44-1.82a16.92,16.92,0,0,0,2.27-4.58,5.2,5.2,0,0,0-.9-4.3,2.49,2.49,0,0,0-3.71,0c-1.37,1.6-.41,5.28.57,6.89.06.08.7.91,1.18,1.51l-1-.85c-1.21-1-2.25-2.06-3.17-3-.52-.52-1-1-1.4-1.47a16.58,16.58,0,0,0-.1-5.08c-.44-1.34-1.37-2.92-2.77-3.4a2.51,2.51,0,0,0-3.31,1.7c-.48,2.05,2.07,4.88,3.68,5.85.14.08,2.48,1.14,2.48,1.1v0c.39.45.83.92,1.31,1.44.9.93,1.93,2,3.12,3a45.53,45.53,0,0,0,4,3.27,32.53,32.53,0,0,0,5,3l.06,0c-.61-.08-2.33-.27-2.46-.26-1.89,0-5.52,1.14-6.15,3.15a2.5,2.5,0,0,0,2,3.15,5.24,5.24,0,0,0,4.13-1.52c1.19-1,2.61-4.18,2.72-4.43a43.68,43.68,0,0,0,5.52,2.08c1.1.34,2.21.64,3.33.94l-1.07-.11c-1.89,0-5.52,1.15-6.15,3.16a2.49,2.49,0,0,0,2,3.14,5.23,5.23,0,0,0,4.13-1.51,16.74,16.74,0,0,0,2.66-4.3l1.29.33c2.07.51,4.14,1,6.15,1.56.71.2,1.4.41,2.1.63l-.93-.09C359.51,353.1,355.88,354.23,355.25,356.25Zm22.12-6-.17-.14.72,0,.12.21c.3.55.57,1.08.85,1.62C378.42,351.38,377.46,350.31,377.37,350.23Zm1.84-.14h.17c.1.3.22.62.31.88ZM379,336.51c.33.84.66,1.67.94,2.5.21.66.46,1.27.63,1.95.11.41.23.81.34,1.21l-.22.1a3.49,3.49,0,0,0-1.36,1.94,11.12,11.12,0,0,0-4.5-2.78,12.55,12.55,0,0,0,3-2.36A6.87,6.87,0,0,0,379,336.51Zm-23.57-20.58c-.44-1.54-.75-3-1-4.24-.14-.72-.25-1.38-.35-2,.27-.33,1-1.27,1.67-2.26a10,10,0,0,0,3.2,1c2.19.32,6.82-1,7.19-1.13a62.35,62.35,0,0,0,2.8,7.76c.64,1.48,1.33,2.94,2,4.4-.42-.62-.8-1.17-.86-1.24-1.73-2-6.23-4.83-8.95-3.68l-.08.05a4.62,4.62,0,0,0,1-3.32,2.49,2.49,0,0,0-3.09-2.06c-2,.57-3.26,4.17-3.32,6.06,0,.1.08,1.14.14,1.9C355.64,316.77,355.49,316.34,355.38,315.93Zm3.9,7.66c0,.12.29,1.59.44,2.28l-.11.05A32.41,32.41,0,0,1,357,320.8c-.4-1-.73-1.93-1-2.87a24.53,24.53,0,0,0,3.45-1.78,3.71,3.71,0,0,0,.11,3.38,4.21,4.21,0,0,0,.28.41A10,10,0,0,0,359.28,323.59Zm4,7.19a43.84,43.84,0,0,1-3.45-4.54c.12-.07,3.26-1.79,4.22-3.09.15-.21.3-.44.44-.68l.42.07c2,.29,5.94-.77,7-1.07.27.56.55,1.12.82,1.67,1.34,2.67,2.69,5.33,3.93,8,.33.7.63,1.4.93,2.1l-.24-.1-.2-.27a13.6,13.6,0,0,0-5.75-3.66,3.91,3.91,0,0,0,.2-2.47A2.49,2.49,0,0,0,368.3,325c-2,.8-2.78,4.51-2.64,6.39,0,.14.38,2.06.5,2.55C365.17,332.9,364.2,331.85,363.28,330.78Zm8.69,9.28c-1.42-1.56-2.91-3.09-4.38-4.62-.46-.47-.9-.94-1.35-1.42l.29-.16c0,.09.07.18.11.26,1,1.83,3.41,2.73,5.36,3a6.5,6.5,0,0,0,1.19,0,9.25,9.25,0,0,0-.21,2.34c0,.1.19,1,.34,1.76l-.25,0C372.71,340.89,372.35,340.47,372,340.06Z" style="fill: rgb(244, 203, 60); transform-origin: 375.437px 314.803px;" id="elnu6mfac2wnq" class="animable"></path><path d="M383.78,347.54c0-.06.07-.13.1-.2,0,.31,0,.62.06.88C383.89,348,383.83,347.77,383.78,347.54Z" style="fill: rgb(244, 203, 60); transform-origin: 383.86px 347.78px;" id="els8pl0tmo17" class="animable"></path><path d="M350.46,318.63c1.64.22,5.17-.89,5.17-.89s-1.43-2.11-1.54-2.23c-1.25-1.41-4.49-3.4-6.42-2.55a2.5,2.5,0,0,0-1.07,3.56A5.24,5.24,0,0,0,350.46,318.63Z" style="fill: rgb(244, 203, 60); transform-origin: 350.933px 315.707px;" id="elue3s895k0zn" class="animable"></path><path d="M332,341.09c-1.82-.48-5.62-.35-6.76,1.42a2.5,2.5,0,0,0,1.07,3.56c1.33.68,3.11.24,4.38-.37,1.49-.72,3.83-3.59,3.83-3.59S332.16,341.14,332,341.09Z" style="fill: rgb(244, 203, 60); transform-origin: 329.698px 343.632px;" id="el44f0r87rqlf" class="animable"></path></g><g id="freepik--Character--inject-142" class="animable" style="transform-origin: 244.12px 326.921px;"><line x1="77.01" y1="360.16" x2="411.23" y2="360.16" style="fill: none; stroke: rgb(38, 50, 56); stroke-linecap: round; stroke-linejoin: round; transform-origin: 244.12px 360.16px;" id="elzpl2mcr1qs" class="animable"></line><polygon points="213.53 365.84 174.74 389.34 249.34 393.45 272.84 366.59 213.53 365.84" style="fill: rgb(255, 255, 255); stroke: rgb(38, 50, 56); stroke-linecap: round; stroke-linejoin: round; transform-origin: 223.79px 379.645px;" id="elyia8we2fukj" class="animable"></polygon><path d="M254,370.9s-15.2,3.2-7.73,5.34,17.6-2.94,13.33-2.94-9.33-.53-11.2.8" style="fill: none; stroke: rgb(38, 50, 56); stroke-linecap: round; stroke-linejoin: round; transform-origin: 252.41px 373.833px;" id="elo7y6ok28w7" class="animable"></path><path d="M244.36,377.84s-4,4.53-14.67,7.46" style="fill: none; stroke: rgb(38, 50, 56); stroke-linecap: round; stroke-linejoin: round; transform-origin: 237.025px 381.57px;" id="elbonrp60givo" class="animable"></path><polyline points="232.89 382.64 227.83 385.84 236.89 385.84" style="fill: none; stroke: rgb(38, 50, 56); stroke-linecap: round; stroke-linejoin: round; transform-origin: 232.36px 384.24px;" id="els6uho9cwt3" class="animable"></polyline><path d="M219,381.84s-18.41.8-10.94,5.33,16.8.27,15.74-1.87-14.4-4-12.8-.26,7.46,1.33,7.46,1.33" style="fill: none; stroke: rgb(38, 50, 56); stroke-linecap: round; stroke-linejoin: round; transform-origin: 215.08px 385.508px;" id="el7v9dzgrulj7" class="animable"></path><polyline points="205.69 378.9 210.22 377.04 200.09 384.77" style="fill: none; stroke: rgb(38, 50, 56); stroke-linecap: round; stroke-linejoin: round; transform-origin: 205.155px 380.905px;" id="elvl1av1ln65" class="animable"></polyline><line x1="210.23" y1="377.04" x2="209.43" y2="379.7" style="fill: none; stroke: rgb(38, 50, 56); stroke-linecap: round; stroke-linejoin: round; transform-origin: 209.83px 378.37px;" id="elbz3t27fkxgi" class="animable"></line><line x1="220.09" y1="373.04" x2="233.16" y2="373.57" style="fill: none; stroke: rgb(38, 50, 56); stroke-linecap: round; stroke-linejoin: round; transform-origin: 226.625px 373.305px;" id="elwo9ygxgsrfn" class="animable"></line><line x1="220.89" y1="370.37" x2="235.29" y2="371.17" style="fill: none; stroke: rgb(38, 50, 56); stroke-linecap: round; stroke-linejoin: round; transform-origin: 228.09px 370.77px;" id="elnnd22sqtuf" class="animable"></line><polygon points="349.44 376.31 341 385.81 351.03 393.19 364.21 386.34 361.58 377.37 349.44 376.31" style="fill: none; stroke: rgb(38, 50, 56); stroke-linecap: round; stroke-linejoin: round; transform-origin: 352.605px 384.75px;" id="eleg3agnmshda" class="animable"></polygon><polyline points="349.44 376.31 357.36 386.34 351.03 393.19" style="fill: none; stroke: rgb(38, 50, 56); stroke-linecap: round; stroke-linejoin: round; transform-origin: 353.4px 384.75px;" id="elk39f9g7uo6" class="animable"></polyline><polyline points="357.36 386.34 361.05 382.64 358.41 378.42 353.14 380.01" style="fill: none; stroke: rgb(38, 50, 56); stroke-linecap: round; stroke-linejoin: round; transform-origin: 357.095px 382.38px;" id="elr6tzf4dta3f" class="animable"></polyline><polygon points="341 385.81 341.29 372.17 352.75 372.17 360.5 377.57 349.38 387 341 385.81" style="fill: rgb(255, 255, 255); stroke: rgb(38, 50, 56); stroke-linecap: round; stroke-linejoin: round; transform-origin: 350.75px 379.585px;" id="el7qixmfyddxk" class="animable"></polygon><polygon points="380.21 393.2 372.61 401.75 381.64 408.4 393.51 402.22 391.14 394.15 380.21 393.2" style="fill: none; stroke: rgb(38, 50, 56); stroke-linecap: round; stroke-linejoin: round; transform-origin: 383.06px 400.8px;" id="ellsbfi3epwqf" class="animable"></polygon><polyline points="380.21 393.2 387.34 402.22 381.64 408.4" style="fill: none; stroke: rgb(38, 50, 56); stroke-linecap: round; stroke-linejoin: round; transform-origin: 383.775px 400.8px;" id="elok0xoq8pm9r" class="animable"></polyline><polyline points="387.34 402.22 390.66 398.9 388.29 395.1 383.54 396.52" style="fill: none; stroke: rgb(38, 50, 56); stroke-linecap: round; stroke-linejoin: round; transform-origin: 387.1px 398.66px;" id="elvoqg0dsnj3r" class="animable"></polyline><polygon points="372.61 401.75 372.87 389.47 383.19 389.47 390.17 394.33 380.15 402.82 372.61 401.75" style="fill: rgb(255, 255, 255); stroke: rgb(38, 50, 56); stroke-linecap: round; stroke-linejoin: round; transform-origin: 381.39px 396.145px;" id="elasct2n3jqz" class="animable"></polygon><polygon points="397.62 376.32 396.91 363.64 384.59 365.46 380.07 379.63 388.27 384.13 397.62 376.32" style="fill: none; stroke: rgb(38, 50, 56); stroke-linecap: round; stroke-linejoin: round; transform-origin: 388.845px 373.885px;" id="eldszz1g7a47h" class="animable"></polygon><polyline points="397.62 376.32 384.94 374.79 384.59 365.46" style="fill: none; stroke: rgb(38, 50, 56); stroke-linecap: round; stroke-linejoin: round; transform-origin: 391.105px 370.89px;" id="elqi6m9t07s3" class="animable"></polyline><polyline points="384.94 374.79 384.92 380.01 389.77 381.15 392.39 376.31" style="fill: none; stroke: rgb(38, 50, 56); stroke-linecap: round; stroke-linejoin: round; transform-origin: 388.655px 377.97px;" id="elgart8k75dpq" class="animable"></polyline><polygon points="396.91 363.64 406.32 373.51 398.19 381.59 388.89 383.23 390.12 368.69 396.91 363.64" style="fill: rgb(255, 255, 255); stroke: rgb(38, 50, 56); stroke-linecap: round; stroke-linejoin: round; transform-origin: 397.605px 373.435px;" id="elo62gvrfgi9j" class="animable"></polygon><path d="M209.31,281.3h90.57a17.33,17.33,0,0,1,17.33,17.33v61.52a0,0,0,0,1,0,0H192a0,0,0,0,1,0,0V298.63A17.33,17.33,0,0,1,209.31,281.3Z" style="fill: rgb(38, 50, 56); transform-origin: 254.605px 320.725px;" id="elwjijvx6oe7h" class="animable"></path><path d="M363.58,326.86s-25.18-11.75-50.08-21-49.8-16.79-78.89-14.83c0,0-18.19,4.76-43.37,17.63S151.8,333,143.68,342s-9,18.18-9,18.18H164l28.08-10.62,3.32,10.62H312.66l-2.8-16.22,22.94,9.23Z" style="fill: rgb(244, 203, 60); transform-origin: 249.13px 325.449px;" id="elx09y2epwgn" class="animable"></path><g style="clip-path: url(&quot;#freepik--clip-path-2--inject-142&quot;); transform-origin: 251.455px 331.766px;" id="elxyrjjpobr" class="animable"><g id="eltzrzpaufxb"><path d="M344.34,343.3,340.85,329s-27.69-8.25-38.9-12.53-19.78-10.88-19.78-7.25,4.29,12.19,1,9.89-8.9-18.14-10.55-15.17-36.59-2.64-47.14.33-21.42,8.9-31.31,15.82-20.11,2-19.45,4.95,5.27,8.24,5.27,8.24-12.19-5.6-12.19-.66-9.23,13.19-9.23,13.19l4.49,14.35H164l28.08-10.62,3.32,10.62H312.66l-2.8-16.22,22.94,9.23Z" style="opacity: 0.2; transform-origin: 251.455px 331.766px;" class="animable"></path></g></g><path d="M363.58,326.86s-25.18-11.75-50.08-21-49.8-16.79-78.89-14.83c0,0-18.19,4.76-43.37,17.63S151.8,333,143.68,342s-9,18.18-9,18.18H164l28.08-10.62,3.32,10.62H312.66l-2.8-16.22,22.94,9.23Z" style="fill: none; stroke: rgb(38, 50, 56); stroke-linecap: round; stroke-linejoin: round; transform-origin: 249.13px 325.449px;" id="el5jyn3d3hml" class="animable"></path><path d="M222.58,303.92s-5.67,5.79-5.17,16.22" style="fill: none; stroke: rgb(38, 50, 56); stroke-linecap: round; stroke-linejoin: round; transform-origin: 219.979px 312.03px;" id="el8o51tr6w8r" class="animable"></path><path d="M221.88,316.66s0,11.92,4,21.35" style="fill: none; stroke: rgb(38, 50, 56); stroke-linecap: round; stroke-linejoin: round; transform-origin: 223.88px 327.335px;" id="el33ydnogyo58" class="animable"></path><path d="M266.57,308.22s6.95,12.91,7.45,24.83" style="fill: none; stroke: rgb(38, 50, 56); stroke-linecap: round; stroke-linejoin: round; transform-origin: 270.295px 320.635px;" id="eljiwulcvkfc" class="animable"></path><path d="M269.55,324.61a28.29,28.29,0,0,1-1,20.85" style="fill: none; stroke: rgb(38, 50, 56); stroke-linecap: round; stroke-linejoin: round; transform-origin: 269.813px 335.035px;" id="elgwkky19x5zg" class="animable"></path><polyline points="185.09 335.57 192.07 349.53 176.47 333.11" style="fill: none; stroke: rgb(38, 50, 56); stroke-linecap: round; stroke-linejoin: round; transform-origin: 184.27px 341.32px;" id="elpkeo8oyrru" class="animable"></polyline><line x1="308.98" y1="343.97" x2="290.53" y2="341.48" style="fill: none; stroke: rgb(38, 50, 56); stroke-linecap: round; stroke-linejoin: round; transform-origin: 299.755px 342.725px;" id="eldfya4cyj7gv" class="animable"></line><line x1="309.86" y1="343.93" x2="292.03" y2="338.49" style="fill: none; stroke: rgb(38, 50, 56); stroke-linecap: round; stroke-linejoin: round; transform-origin: 300.945px 341.21px;" id="elmrqvb07v37s" class="animable"></line><path d="M222.58,303.92s2,16.51,4.47,25.46,5,11.19,5,11.19l7.55-6.43,2,5.87,9,3.64,7-7.56-1.68-5.87,12,5.87s-1.12-17.62-4.76-30.49S247.76,288,237.4,291.89A29.87,29.87,0,0,0,222.58,303.92Z" style="fill: rgb(255, 255, 255); transform-origin: 245.25px 317.109px;" id="elf1h001qr1rc" class="animable"></path><g style="clip-path: url(&quot;#freepik--clip-path-3--inject-142&quot;); transform-origin: 245.25px 317.109px;" id="elseyg33bgrwa" class="animable"><g id="el6kpd3x19det"><path d="M222.58,303.92s2,16.51,4.47,25.46,5,11.19,5,11.19l7.55-6.43,2,5.87,9,3.64,7-7.56-1.68-5.87,12,5.87s-1.12-17.62-4.76-30.49S247.76,288,237.4,291.89A29.87,29.87,0,0,0,222.58,303.92Z" style="opacity: 0.2; transform-origin: 245.25px 317.109px;" class="animable"></path></g></g><path d="M222.58,303.92s2,16.51,4.47,25.46,5,11.19,5,11.19l7.55-6.43,2,5.87,9,3.64,7-7.56-1.68-5.87,12,5.87s-1.12-17.62-4.76-30.49S247.76,288,237.4,291.89A29.87,29.87,0,0,0,222.58,303.92Z" style="fill: none; stroke: rgb(38, 50, 56); stroke-linecap: round; stroke-linejoin: round; transform-origin: 245.25px 317.109px;" id="elnuuf9be8t6n" class="animable"></path><g style="clip-path: url(&quot;#freepik--clip-path-4--inject-142&quot;); transform-origin: 246.675px 334.19px;" id="elfxxzcbwj8x8" class="animable"><path d="M238,327.7s9.24,17.35,12.59,15.95,4.76-19,4.76-19A42.37,42.37,0,0,1,238,327.7Z" style="fill: rgb(244, 203, 60); transform-origin: 246.675px 334.19px;" id="ell0m1f73g03" class="animable"></path><g id="el5dlzyi4zlxg"><path d="M238,327.7s9.24,17.35,12.59,15.95,4.76-19,4.76-19A42.37,42.37,0,0,1,238,327.7Z" style="fill: rgb(255, 255, 255); opacity: 0.5; transform-origin: 246.675px 334.19px;" class="animable"></path></g></g><path d="M238,327.7s9.24,17.35,12.59,15.95,4.76-19,4.76-19A42.37,42.37,0,0,1,238,327.7Z" style="fill: none; stroke: rgb(38, 50, 56); stroke-linecap: round; stroke-linejoin: round; transform-origin: 246.675px 334.19px;" id="el643gu8l2i3t" class="animable"></path><path d="M331.08,350.79C330,349,333.27,340.14,333.92,338c2.94-9.57,7.21-20.13,17.77-22.65s19.94,8.81,21.27,15.12-8.64,15.29-13,18.28S337.73,361.42,331.08,350.79Z" style="fill: rgb(255, 255, 255); stroke: rgb(38, 50, 56); stroke-linecap: round; stroke-linejoin: round; transform-origin: 351.972px 335.32px;" id="elym5xr1d6e7" class="animable"></path><g id="eld1ljxdfdqe6"><path d="M371,331.33s-8.62-10.07-14-10.53-11.35,4.53-18.35,15.2-7.24,18.72-3.12,17.21S370.67,340.33,371,331.33Z" style="opacity: 0.2; transform-origin: 351.912px 337.082px;" class="animable"></path></g><path d="M169.81,351.8s-6.94-14.34-11.72-19.28-10-.77-20.51,7.71-11.26,17.12-10.18,19.59,2.47,2.78,3.39,2.62,6.94-12.18,14.81-13.42,21.75,7.87,24.06,6.33S169.81,351.8,169.81,351.8Z" style="fill: rgb(255, 255, 255); stroke: rgb(38, 50, 56); stroke-linecap: round; stroke-linejoin: round; transform-origin: 148.881px 346.439px;" id="elrv6hv1lterh" class="animable"></path><g id="elpeb1wknfa9f"><path d="M130,356.67s-.67-3.34,3-9.34S146,336,150.67,336,163,344.67,164,348.67s-17.13,10.16-21.67,10.66S130.67,361.33,130,356.67Z" style="opacity: 0.2; transform-origin: 146.996px 347.98px;" class="animable"></path></g><path d="M197.45,357s-43.37-12-49.07-14.77-11.11,2-15.74,8.33-4.65,17-3.39,18.81c4.83,6.91,56.6,1.39,56.6,1.39Z" style="fill: rgb(255, 255, 255); stroke: rgb(38, 50, 56); stroke-linecap: round; stroke-linejoin: round; transform-origin: 162.995px 357.137px;" id="el0326k9mgxgr5" class="animable"></path><path d="M192.66,357.75s-36.33-8-46.84-6.37-16.9,17.53-8,18.8,51.63-1.27,51.63-1.27Z" style="fill: rgb(244, 203, 60); transform-origin: 163.131px 360.848px;" id="eldg8ota8vqig" class="animable"></path><g id="eldygnwtcqzzh"><path d="M192.66,357.75s-36.33-8-46.84-6.37-16.9,17.53-8,18.8,51.63-1.27,51.63-1.27Z" style="fill: rgb(255, 255, 255); opacity: 0.5; transform-origin: 163.131px 360.848px;" class="animable"></path></g><path d="M218.28,295.17s3.87,14.85,6.51,19.94,14,16.88,17.5,18.51,9.15-.41,11.19-3.87S262.83,314.7,263,310s.61-13.83.61-13.83,2.23,1.63,3.66.2,2.44-11,.61-15.26-3.66-3.45-4.27-1.62a19.7,19.7,0,0,1-1.43,3.25s-2.24-7.93-7.73-8.54-37.22,12.2-37.22,12.2Z" style="fill: rgb(255, 255, 255); stroke: rgb(38, 50, 56); stroke-linecap: round; stroke-linejoin: round; transform-origin: 243.049px 304.185px;" id="elgc1vtv9qxwl" class="animable"></path><path d="M221.85,293.38s2.31,13.52,4.28,16.81,10.22,18.14,14.51,20.44,7.91,4,10.88-1.32,7.58-13.51,9.23-19.44.33-15.5.33-15.5-2.31-13.84-2.64-18.13S219.21,267.67,221.85,293.38Z" style="fill: rgb(244, 203, 60); transform-origin: 241.651px 302.914px;" id="elc3opwn0svho" class="animable"></path><g id="ele81ebf1x2a"><path d="M221.85,293.38s2.31,13.52,4.28,16.81,10.22,18.14,14.51,20.44,7.91,4,10.88-1.32,7.58-13.51,9.23-19.44.33-15.5.33-15.5-2.31-13.84-2.64-18.13S219.21,267.67,221.85,293.38Z" style="fill: rgb(255, 255, 255); opacity: 0.5; transform-origin: 241.651px 302.914px;" class="animable"></path></g><path d="M237,301.88s1.63,8.55-.61,13.63c0,0,4.07,2.44,6.91-2.44" style="fill: none; stroke: rgb(38, 50, 56); stroke-linecap: round; stroke-linejoin: round; transform-origin: 239.845px 309px;" id="elfw9kjre5fo" class="animable"></path><path d="M244.32,301.88c-1.86-3.59,1.62-11.91,11.8-3.66C256.12,298.22,245.54,294,244.32,301.88Z" style="fill: rgb(38, 50, 56); transform-origin: 249.981px 298.285px;" id="elzgqp13s2vc" class="animable"></path><path d="M237.2,303.51s-.81-3.25-5.08-5.29-5.9-2.24-5.9-2.24S238,293.54,237.2,303.51Z" style="fill: rgb(38, 50, 56); transform-origin: 231.729px 299.613px;" id="elsuhdtvp1e5" class="animable"></path><path d="M245.34,320.19s5.29-.61,8.75-6.91" style="fill: none; stroke: rgb(38, 50, 56); stroke-linecap: round; stroke-linejoin: round; transform-origin: 249.715px 316.735px;" id="elo0ym9dtpsa8" class="animable"></path><path d="M250.63,317.34s-.82-7.93,1.42-8.13,1.08,5.6,1.08,5.6Z" style="fill: rgb(244, 203, 60); stroke: rgb(38, 50, 56); stroke-linecap: round; stroke-linejoin: round; transform-origin: 251.957px 313.272px;" id="el8afghu1h2pe" class="animable"></path><path d="M249.77,303.69c0,1.13-.5,2.05-1.11,2.05s-1.1-.92-1.1-2.05.49-2.05,1.1-2.05S249.77,302.56,249.77,303.69Z" style="fill: rgb(38, 50, 56); transform-origin: 248.665px 303.69px;" id="eljlm48kb2wwh" class="animable"></path><path d="M234,304.48c0,1.13-.5,2-1.11,2s-1.1-.92-1.1-2,.49-2.05,1.1-2.05S234,303.34,234,304.48Z" style="fill: rgb(38, 50, 56); transform-origin: 232.895px 304.455px;" id="elsfrfrbg2izn" class="animable"></path><path d="M247.09,305.74a6.34,6.34,0,0,0,3.94-1.26" style="fill: none; stroke: rgb(38, 50, 56); stroke-linecap: round; stroke-linejoin: round; stroke-width: 0.75px; transform-origin: 249.06px 305.111px;" id="el43b676x1i8h" class="animable"></path><path d="M230.89,306.29a6.38,6.38,0,0,0,4.14-.16" style="fill: none; stroke: rgb(38, 50, 56); stroke-linecap: round; stroke-linejoin: round; stroke-width: 0.75px; transform-origin: 232.96px 306.345px;" id="eltz78wfftgt" class="animable"></path><path d="M199.75,349.71s8.4-2,11.19-.28,1.12,12.87-.27,14.55-4.2,1.68-4.2-1.4a30.84,30.84,0,0,1,.84-6.43h-4.48Z" style="fill: rgb(255, 255, 255); transform-origin: 206.1px 356.918px;" id="eld7gr49c7xzh" class="animable"></path><g style="clip-path: url(&quot;#freepik--clip-path-5--inject-142&quot;); transform-origin: 207.052px 357.62px;" id="elvrh7c3pm849" class="animable"><path d="M211.08,362.19c.15-2.81.74-6.49-1.18-9.29s-7.08-1.33-7.08-1.33l1.07,4.58h3.42a30.84,30.84,0,0,0-.84,6.43,4,4,0,0,0,.11,1C208.36,364.31,211,364.44,211.08,362.19Z" style="fill: rgb(244, 203, 60); transform-origin: 207.052px 357.62px;" id="eld9oh7qymbw" class="animable"></path><g id="el5023bg4nmhi"><path d="M211.08,362.19c.15-2.81.74-6.49-1.18-9.29s-7.08-1.33-7.08-1.33l1.07,4.58h3.42a30.84,30.84,0,0,0-.84,6.43,4,4,0,0,0,.11,1C208.36,364.31,211,364.44,211.08,362.19Z" style="fill: rgb(255, 255, 255); opacity: 0.5; transform-origin: 207.052px 357.62px;" class="animable"></path></g></g><path d="M199.75,349.71s8.4-2,11.19-.28,1.12,12.87-.27,14.55-4.2,1.68-4.2-1.4a30.84,30.84,0,0,1,.84-6.43h-4.48Z" style="fill: none; stroke: rgb(38, 50, 56); stroke-linecap: round; stroke-linejoin: round; transform-origin: 206.1px 356.918px;" id="el7ajlmo3mw9" class="animable"></path><polygon points="213.41 371.4 214.11 375.01 211.36 372.39 191.27 330.65 193.33 329.67 213.41 371.4" style="fill: rgb(255, 255, 255); stroke: rgb(38, 50, 56); stroke-linecap: round; stroke-linejoin: round; transform-origin: 202.69px 352.34px;" id="eljrrvjk3oxoh" class="animable"></polygon><polygon points="211.36 372.39 214.11 375.01 213.41 371.4 213.29 371.14 211.34 372.34 211.36 372.39" style="fill: rgb(255, 255, 255); stroke: rgb(38, 50, 56); stroke-linecap: round; stroke-linejoin: round; transform-origin: 212.725px 373.075px;" id="elumnqgv88icn" class="animable"></polygon><polygon points="193.33 329.67 191.27 330.65 193.08 334.4 195.09 333.33 193.33 329.67" style="fill: rgb(255, 255, 255); stroke: rgb(38, 50, 56); stroke-linecap: round; stroke-linejoin: round; transform-origin: 193.18px 332.035px;" id="el9po952dbomd" class="animable"></polygon><path d="M195,353.07a53.41,53.41,0,0,1-3.92,7c-1.68,2.24-6.43,5.88-7,9.8s7.55,8.11,11.19,8.67,9.79-4.2,11.19-4.76,3.08-1.4,1.12-5.59S195,353.07,195,353.07Z" style="fill: rgb(255, 255, 255); transform-origin: 196.262px 365.828px;" id="el22u6woo8tax" class="animable"></path><g style="clip-path: url(&quot;#freepik--clip-path-6--inject-142&quot;); transform-origin: 197.207px 368.528px;" id="ely0s4fy1s77d" class="animable"><path d="M207.59,368.18c-1-2.23-4.53-6.36-7.58-9.74l-1.61.27s-3.82,3.82-3.82,6.37,3.82,6.06,3.82,6.06-5.74-1.28-7,.64A2.25,2.25,0,0,0,192,375a24.33,24.33,0,0,0-6.06-1.22,20.64,20.64,0,0,0,9.31,4.79c3.64.56,9.79-4.2,11.19-4.76S209.55,372.37,207.59,368.18Z" style="fill: rgb(244, 203, 60); transform-origin: 197.207px 368.528px;" id="el6708xuvglex" class="animable"></path><g id="elyqpp1cfdzg"><path d="M207.59,368.18c-1-2.23-4.53-6.36-7.58-9.74l-1.61.27s-3.82,3.82-3.82,6.37,3.82,6.06,3.82,6.06-5.74-1.28-7,.64A2.25,2.25,0,0,0,192,375a24.33,24.33,0,0,0-6.06-1.22,20.64,20.64,0,0,0,9.31,4.79c3.64.56,9.79-4.2,11.19-4.76S209.55,372.37,207.59,368.18Z" style="fill: rgb(255, 255, 255); opacity: 0.5; transform-origin: 197.207px 368.528px;" class="animable"></path></g></g><path d="M195,353.07a53.41,53.41,0,0,1-3.92,7c-1.68,2.24-6.43,5.88-7,9.8s7.55,8.11,11.19,8.67,9.79-4.2,11.19-4.76,3.08-1.4,1.12-5.59S195,353.07,195,353.07Z" style="fill: none; stroke: rgb(38, 50, 56); stroke-linecap: round; stroke-linejoin: round; transform-origin: 196.262px 365.828px;" id="elpfbnubpbjl" class="animable"></path><path d="M195,348.3a4,4,0,0,1,6.19,1.32c2.64,5.13,8.11,15.89,8.11,17.16,0,1.68.28,4.19-2.8,2.24s-9.51-10.63-11.19-13.15C194.09,354.08,192.76,350.33,195,348.3Z" style="fill: rgb(255, 255, 255); transform-origin: 201.548px 358.541px;" id="eleqpcdmvnyvc" class="animable"></path><g style="clip-path: url(&quot;#freepik--clip-path-7--inject-142&quot;); transform-origin: 204.025px 361.916px;" id="elww68ky3rhg" class="animable"><path d="M204.74,357s-2.51-4-5.31-2.66,4.87,12.68,6.19,14.3,2.95,1.33,3.4.15.14-2.65-.59-5.45S204.74,357,204.74,357Z" style="fill: rgb(244, 203, 60); transform-origin: 204.025px 361.916px;" id="elkbbqtaqk1wh" class="animable"></path><g id="elalqw1t0o9o6"><path d="M204.74,357s-2.51-4-5.31-2.66,4.87,12.68,6.19,14.3,2.95,1.33,3.4.15.14-2.65-.59-5.45S204.74,357,204.74,357Z" style="fill: rgb(255, 255, 255); opacity: 0.5; transform-origin: 204.025px 361.916px;" class="animable"></path></g></g><path d="M195,348.3a4,4,0,0,1,6.19,1.32c2.64,5.13,8.11,15.89,8.11,17.16,0,1.68.28,4.19-2.8,2.24s-9.51-10.63-11.19-13.15C194.09,354.08,192.76,350.33,195,348.3Z" style="fill: none; stroke: rgb(38, 50, 56); stroke-linecap: round; stroke-linejoin: round; transform-origin: 201.548px 358.541px;" id="elcml1hgpxmtv" class="animable"></path><path d="M191.36,362.58A57.37,57.37,0,0,0,197,371c2.51,2.8,11.47,1.4,11.47,1.4" style="fill: none; stroke: rgb(38, 50, 56); stroke-linecap: round; stroke-linejoin: round; transform-origin: 199.915px 367.665px;" id="elrb7gjsx3rac" class="animable"></path><path d="M186.89,368.18s4.75,7.27,7.27,8.67,9.23-1.68,9.23-1.68" style="fill: none; stroke: rgb(38, 50, 56); stroke-linecap: round; stroke-linejoin: round; transform-origin: 195.14px 372.697px;" id="elne3sksh2w2g" class="animable"></path><path d="M295,364.58s-8.31-1.33-9.81-.83-3.65,3-9.47,4.65-7.48,2.83-5.32,3.83a14.28,14.28,0,0,0,9.48,0c3-1.17,5.65-3,6.31-3.16a17.58,17.58,0,0,1,3.82.66S294.52,367.57,295,364.58Z" style="fill: rgb(255, 255, 255); stroke: rgb(38, 50, 56); stroke-linecap: round; stroke-linejoin: round; transform-origin: 282.246px 368.339px;" id="el84gekav1qzv" class="animable"></path><path d="M363.82,326.19c-19.15-2.81-22.71,13.7-33.84,27.16-8.51,10.28-15.88,14.41-18.89,15.79-3.65-2.6-8-5.38-10.59-6.05-5.15-1.33-6.64,1.33-8.8,3.49s-17.12,11-17.95,12.63,1.16,2,2.49,2.16,5.82-1.5,5.82-1.5-4,1.83-3,3.16,10.13-1.17,13.29-2.33c0,0-8.31,3.82-7.81,5.15s3.49.83,5.48.33,12.8-4.32,12.8-4.32-8,3.66-10,4.82,1,2,2.49,2,8.64-3.33,11.8-4.32S317,383,321.44,380.7a19.14,19.14,0,0,0,4.37-3c9.06-4.84,35.84-19.95,42.32-31.09C375.27,334.32,373.73,327.65,363.82,326.19Z" style="fill: rgb(255, 255, 255); transform-origin: 323.055px 357.277px;" id="elq9uc6ztyi39" class="animable"></path><g style="clip-path: url(&quot;#freepik--clip-path-8--inject-142&quot;); transform-origin: 334.568px 357.15px;" id="el9b53fq31h87" class="animable"><path d="M363.82,326.19a28.33,28.33,0,0,0-4.08-.3c.24.19,3.52,3,1.59,9.11-2,6.33-36.66,37.67-40.33,39s-12.33-4.33-12-2.33,4,5.66,3.33,7S301.67,385,298,387.33a11.79,11.79,0,0,0-1.42,1.08c2.6-.81,7.95-3.23,10.57-4.05,3.16-1,9.81-1.33,14.29-3.66a19.14,19.14,0,0,0,4.37-3c9.06-4.84,35.84-19.95,42.32-31.09C375.27,334.32,373.73,327.65,363.82,326.19Z" style="fill: rgb(244, 203, 60); transform-origin: 334.568px 357.15px;" id="elyeto181xia" class="animable"></path><g id="el7u6sl15p95"><path d="M363.82,326.19a28.33,28.33,0,0,0-4.08-.3c.24.19,3.52,3,1.59,9.11-2,6.33-36.66,37.67-40.33,39s-12.33-4.33-12-2.33,4,5.66,3.33,7S301.67,385,298,387.33a11.79,11.79,0,0,0-1.42,1.08c2.6-.81,7.95-3.23,10.57-4.05,3.16-1,9.81-1.33,14.29-3.66a19.14,19.14,0,0,0,4.37-3c9.06-4.84,35.84-19.95,42.32-31.09C375.27,334.32,373.73,327.65,363.82,326.19Z" style="fill: rgb(255, 255, 255); opacity: 0.5; transform-origin: 334.568px 357.15px;" class="animable"></path></g></g><path d="M363.82,326.19c-19.15-2.81-22.71,13.7-33.84,27.16-8.51,10.28-15.88,14.41-18.89,15.79-3.65-2.6-8-5.38-10.59-6.05-5.15-1.33-6.64,1.33-8.8,3.49s-17.12,11-17.95,12.63,1.16,2,2.49,2.16,5.82-1.5,5.82-1.5-4,1.83-3,3.16,10.13-1.17,13.29-2.33c0,0-8.31,3.82-7.81,5.15s3.49.83,5.48.33,12.8-4.32,12.8-4.32-8,3.66-10,4.82,1,2,2.49,2,8.64-3.33,11.8-4.32S317,383,321.44,380.7a19.14,19.14,0,0,0,4.37-3c9.06-4.84,35.84-19.95,42.32-31.09C375.27,334.32,373.73,327.65,363.82,326.19Z" style="fill: none; stroke: rgb(38, 50, 56); stroke-linecap: round; stroke-linejoin: round; transform-origin: 323.055px 357.277px;" id="elr5ptyj4raa8" class="animable"></path><path d="M282.06,379.87s15.29-8.48,17.78-11.63" style="fill: none; stroke: rgb(38, 50, 56); stroke-linecap: round; stroke-linejoin: round; transform-origin: 290.95px 374.055px;" id="elfx3e7plkarb" class="animable"></path><path d="M292.36,380.7s9-3.82,12.13-6.15" style="fill: none; stroke: rgb(38, 50, 56); stroke-linecap: round; stroke-linejoin: round; transform-origin: 298.425px 377.625px;" id="elmuuadv37c7g" class="animable"></path><path d="M302.83,381.86s5.82-2,7.48-3.32" style="fill: none; stroke: rgb(38, 50, 56); stroke-linecap: round; stroke-linejoin: round; transform-origin: 306.57px 380.2px;" id="eltdso0hh4f6f" class="animable"></path><line x1="311.09" y1="369.14" x2="314.67" y2="372" style="fill: none; stroke: rgb(38, 50, 56); stroke-linecap: round; stroke-linejoin: round; transform-origin: 312.88px 370.57px;" id="elzdzrqnifv7k" class="animable"></line><path d="M254.9,279.3s-.61,4.68-14.85,12.21-24.61,5.69-26,4.68-5.9-13.84-2.44-27.87S230.08,248,243.1,248s19.94,9.56,22.38,17.08-1.43,28.08-1.43,28.08S256.12,291.1,254.9,279.3Z" style="fill: rgb(38, 50, 56); stroke: rgb(38, 50, 56); stroke-linecap: round; stroke-linejoin: round; transform-origin: 238.31px 272.574px;" id="elsc8ah5yays" class="animable"></path><path d="M254.25,280.59S251.2,294.83,223,300.42" style="fill: none; stroke: rgb(38, 50, 56); stroke-linecap: round; stroke-linejoin: round; transform-origin: 238.625px 290.505px;" id="ellf2cmd21y5m" class="animable"></path><path d="M255,251.62s-7.88-12.45-30.5-2" style="fill: none; stroke: rgb(38, 50, 56); stroke-linecap: round; stroke-linejoin: round; transform-origin: 239.75px 248.531px;" id="eljrz7ahf50sf" class="animable"></path><path d="M256.54,253.15a8.47,8.47,0,0,1,8.13,3.55" style="fill: none; stroke: rgb(38, 50, 56); stroke-linecap: round; stroke-linejoin: round; transform-origin: 260.605px 254.884px;" id="el2oheu7gbrmk" class="animable"></path><path d="M254.46,266.69s-1.52,16.71-30.39,22" style="fill: none; stroke: rgb(255, 255, 255); stroke-linecap: round; stroke-linejoin: round; transform-origin: 239.265px 277.69px;" id="el93lw8y3q0y7" class="animable"></path><path d="M217.24,278.8c-1-.07-2-.18-3-.34" style="fill: none; stroke: rgb(255, 255, 255); stroke-linecap: round; stroke-linejoin: round; transform-origin: 215.74px 278.63px;" id="el70pa9bp8coc" class="animable"></path><path d="M253.32,262.13S240,277.49,221.79,278.78" style="fill: none; stroke: rgb(255, 255, 255); stroke-linecap: round; stroke-linejoin: round; transform-origin: 237.555px 270.455px;" id="el74ijt466re9" class="animable"></path></g><g id="freepik--social-ideas--inject-142" class="animable" style="transform-origin: 249.67px 182.379px;"><path d="M342.88,204.58c.11.19,2.57-1.74,2.68-1.55.26.44-10.18,9.12-9.93,9.56.57,1,20.36-13,20.89-12.06.63,1.09-23.9,16.08-23.26,17.19.82,1.41,28.27-17.83,28.93-16.7s-30.49,18.37-29.78,19.61,32-20.22,32.74-18.9-34,19.69-33.2,21.16,34.55-21.8,35.35-20.42-36.36,24.07-35.58,25.41c1,1.84,39.14-24.72,40.06-23.13s-40.85,22.74-40,24.27,39.91-25.38,40.92-23.63c.86,1.49-41.81,23.64-40.78,25.43.91,1.57,41.22-26.21,42.26-24.4.92,1.59-42.23,27-41.33,28.58,1.07,1.86,43.42-27.47,44.46-25.67s-44.64,26.3-43.48,28.31c1,1.78,44.1-28.26,45.31-26.17,1,1.75-46,25.2-45,26.82,1.11,1.91,44.39-28.16,45.49-26.26s-46.18,25.3-45.12,27.13c1.22,2.1,44.54-28.19,45.62-26.33.93,1.61-46.19,25.48-45.17,27.24,1.13,2,44.65-28.2,45.7-26.39,1.14,2-44.68,27.84-43.52,29.85,1,1.72,44.28-28.21,45.42-26.22,1.07,1.84-45.08,26.05-44.05,27.82,1.14,2,43.87-27.62,44.86-25.9s-44.79,25.45-43.86,27.07c1.15,2,43.31-27.28,44.29-25.57s-42.23,26.58-41.21,28.35,40.9-26.28,42.06-24.28c.91,1.59-42.87,22.63-41.82,24.44,1.14,2,40.81-25.93,41.84-24.15S342,247.71,343,249.34s40.66-25.92,41.71-24.09c.92,1.58-38.43,25-37.51,26.63s36.65-23.47,37.65-21.74c.75,1.3-35,21.74-34.16,23.18s32.92-20.74,33.67-19.44-33.85,18.3-33.07,19.65,32-20.58,32.94-19c.75,1.3-27.16,19.12-26.55,20.19s23.72-15.26,24.4-14.08c.48.82-18.2,13-17.75,13.79.36.63,13.65-8.84,14.06-8.12.19.32-8.56,6-8.35,6.42.14.23,4.08-2.72,4.24-2.45s-3.3,1.9-3.23,2,2.55-1.77,2.68-1.54" style="fill: none; stroke: rgb(38, 50, 56); stroke-linecap: round; stroke-linejoin: round; stroke-width: 0.72px; transform-origin: 358.285px 227.628px;" id="elxkfqe4uhjh" class="animable"></path><path d="M354.12,238.28a5.41,5.41,0,0,0,3.59-2.52,5.73,5.73,0,0,0,.87-3.12,5.21,5.21,0,0,0-.76-2.86,4.34,4.34,0,0,0-2.26-1.73,4.52,4.52,0,0,0,1.49-1.11,4.4,4.4,0,0,0,.91-2.88,4.94,4.94,0,0,0-.9-3c-1-1.36-2.68-2.05-5.07-2.09h-9.45v19.55h8.81A13.37,13.37,0,0,0,354.12,238.28Zm-7.68-15.89h4.26a7.53,7.53,0,0,1,2.31.3,1.77,1.77,0,0,1,1.05,1.81,1.86,1.86,0,0,1-.8,1.72,4,4,0,0,1-2.07.48h-4.75Zm0,12.76v-5.21h4.81a5.06,5.06,0,0,1,2,.33,2.09,2.09,0,0,1,1.24,2.09,2.44,2.44,0,0,1-1.28,2.44,4.59,4.59,0,0,1-2,.35Z" style="fill: rgb(255, 255, 255); transform-origin: 350.561px 228.746px;" id="el596k4liy3sh" class="animable"></path><path d="M361.89,237.26A7.91,7.91,0,0,0,367,239a7,7,0,0,0,5.44-2.1,4.75,4.75,0,0,0,1.4-2.62H370a3,3,0,0,1-.78,1,3.17,3.17,0,0,1-2.09.66,3.87,3.87,0,0,1-2.09-.54,3.48,3.48,0,0,1-1.51-3.05H374a18.61,18.61,0,0,0-.12-2.87,7,7,0,0,0-1.16-3,5.79,5.79,0,0,0-2.5-2.14,8.22,8.22,0,0,0-3.4-.68,6.94,6.94,0,0,0-5.16,2,7.8,7.8,0,0,0-2,5.76Q359.68,235.47,361.89,237.26Zm2.7-9.61a3,3,0,0,1,2.26-.83,3.3,3.3,0,0,1,2.24.78,3.17,3.17,0,0,1,1,2.28h-6.52A4,4,0,0,1,364.59,227.65Z" style="fill: rgb(255, 255, 255); transform-origin: 366.827px 231.334px;" id="eldqt1076ouz" class="animable"></path><rect x="362.35" y="220.12" width="8.5" height="1.97" style="fill: rgb(255, 255, 255); transform-origin: 366.6px 221.105px;" id="elspx17ov5jx" class="animable"></rect><path d="M315.25,143.13c.12.2,2.57-1.74,2.68-1.55.26.45-10.66,9.82-10.37,10.32.51.88,21.69-13.81,22.25-12.84S306.5,152.07,307,153s23.39-14.86,24-13.84-25.69,15.47-25.13,16.43c.76,1.31,27.34-17.25,28-16.15S303.59,160,304.34,161.31s34.27-22,35.21-20.33c.74,1.27-36.24,20.57-35.38,22.07s36.05-23,37-21.37c.81,1.4-37.86,23.48-37.08,24.83.87,1.51,39.21-24.77,40.13-23.17,1,1.82-41,22.73-40,24.31s39.91-25.55,41-23.66-41.76,23.46-40.89,24.95c1,1.76,41-25.87,42-24.23s-42.91,23.21-41.91,24.95,41.45-26.24,42.45-24.51c1.1,1.89-43.52,22.95-42.42,24.86S346.08,143.7,347,145.37s-43.25,24.6-42.25,26.34,42.61-26.86,43.59-25.17c1.12,2-44.47,23.85-43.5,25.54,1.2,2.08,42.82-27,43.79-25.28s-44.15,26-43.18,27.65c1.13,2,43.67-27.85,44.81-25.88,1,1.7-44.44,27.44-43.35,29.32,1.22,2.12,44.56-28.22,45.64-26.35s-44.64,28-43.68,29.64c1.07,1.86,44.45-28.29,45.59-26.32S308,179.53,309.09,181.47c1.21,2.11,44.53-28.06,45.54-26.3S309.36,181.4,310.29,183c1.08,1.87,44.07-27.82,45.1-26s-44.69,25.91-43.62,27.77,43.32-27.39,44.35-25.61c1.14,2-44.41,24.75-43.31,26.64s42.52-27.19,43.66-25.21c1.06,1.83-41.36,26.06-40.3,27.9.93,1.62,40.06-25.2,40.95-23.65s-38.66,24-37.77,25.53,36.9-23.46,37.84-21.84c.81,1.4-37.83,20.84-37,22.26s36.06-22.86,36.94-21.33-34.87,21.1-34.09,22.45c.93,1.62,32.74-21,33.65-19.43.77,1.32-30.21,19.33-29.55,20.48s27.64-17.74,28.41-16.4c.56,1-27.08,15.48-26.39,16.67s25-16,25.65-14.81c.49.84-19.92,13.79-19.39,14.71.44.76,15.83-10.09,16.24-9.38.2.34-8.62,6.83-8.42,7.18s2.79-1.87,2.9-1.68-2.82,1.51-2.76,1.62,2.55-1.78,2.68-1.55" style="fill: none; stroke: rgb(38, 50, 56); stroke-linecap: round; stroke-linejoin: round; stroke-width: 0.72px; transform-origin: 330.64px 166.152px;" id="elakdjl4na5td" class="animable"></path><path d="M326.23,183.08H333v-17h4.74l.51-5.7H333v-3.25c0-1.34.27-1.87,1.57-1.87h3.68v-5.92h-4.71c-5.05,0-7.33,2.23-7.33,6.5v4.54h-3.54v5.77h3.54Z" style="fill: rgb(255, 255, 255); transform-origin: 330.46px 166.21px;" id="el34dmdol304e" class="animable"></path><path d="M240.18,114c.11.19,2.56-1.77,2.68-1.55s-8.6,6.93-8.39,7.28c.45.8,16.12-10.31,16.56-9.56.52.91-19.78,13.32-19.3,14.14.6,1,24-15.45,24.7-14.26S229,128.62,229.74,129.91c.85,1.47,31.76-20.15,32.54-18.78S228.19,133.52,229,135s37.11-23.41,38-21.92c1,1.69-38.8,21-38,22.42,1,1.78,37.42-24,38.45-22.2.82,1.41-39.39,21.78-38.49,23.33,1,1.79,38.43-24.67,39.51-22.81.91,1.59-40.05,25.22-39.2,26.7,1,1.73,41.48-26.07,42.4-24.48s-42.35,27.22-41.39,28.88c1.06,1.82,43.53-27.69,44.64-25.77.93,1.61-45.05,25.61-44,27.49,1.24,2.14,44.17-27.82,45.18-26.08s-46,24.89-44.84,26.89,44.25-28.24,45.41-26.22c.95,1.64-46.18,25.09-45.07,27,1,1.74,44.53-28.06,45.55-26.3s-45.89,26-44.86,27.74c1.18,2,44.64-28.21,45.7-26.39s-46.53,24.93-45.45,26.8c1.21,2.09,44.59-28.32,45.7-26.38S234,151.89,234.94,153.59s44.21-27.85,45.21-26.11c1.16,2-45.37,25.28-44.24,27.24,1,1.8,43.7-27.81,44.82-25.88.94,1.63-43.92,26.06-42.8,28s42.36-27.16,43.54-25.13c1,1.75-43.54,24.27-42.52,26s41.77-26.56,42.84-24.73-42.26,24.25-41.27,26S281,133.24,282,135c.8,1.39-38.39,24.86-37.56,26.31s36.63-23.55,37.67-21.75c.91,1.58-37.42,20.76-36.52,22.32s35.59-22.48,36.43-21-33.75,20.89-32.94,22.3,31.42-20.16,32.3-18.64c.72,1.24-32.6,17.46-31.83,18.79s31-19.53,31.73-18.32S250,162.29,250.76,163.56s29.4-18.72,30.16-17.41c.59,1-29.06,16.57-28.37,17.78s27-17.38,27.76-16c.59,1-21.53,15.21-21,16.17S276.67,153,277.14,153.8c.26.45-10.42,8.08-10.17,8.51s4.58-3.05,4.75-2.75-4.56,2.43-4.45,2.62,4.12-2.76,4.29-2.48-3.32,1.92-3.26,2,2.56-1.76,2.68-1.55" style="fill: none; stroke: rgb(38, 50, 56); stroke-linecap: round; stroke-linejoin: round; stroke-width: 0.72px; transform-origin: 255.536px 137.071px;" id="ele4ow7oygz77" class="animable"></path><path d="M240.71,146.46a17.28,17.28,0,0,0,9.35,2.74c11.34,0,17.74-9.57,17.35-18.15a12.38,12.38,0,0,0,3-3.16,12.49,12.49,0,0,1-3.51,1,6.16,6.16,0,0,0,2.69-3.38,12.15,12.15,0,0,1-3.88,1.48,6.11,6.11,0,0,0-10.4,5.57,17.29,17.29,0,0,1-12.58-6.38,6.11,6.11,0,0,0,1.89,8.15,6.16,6.16,0,0,1-2.77-.76,6.11,6.11,0,0,0,4.9,6.06,6.08,6.08,0,0,1-2.76.1,6.11,6.11,0,0,0,5.7,4.24A12.23,12.23,0,0,1,240.71,146.46Z" style="fill: rgb(255, 255, 255); transform-origin: 255.56px 137.134px;" id="elprvs9lo8he" class="animable"></path><path d="M165.64,143.13c.11.18,2.55-1.77,2.68-1.55.3.52-10.74,9.94-10.44,10.47.55.95,21.88-14,22.48-13S156.52,152.93,157,153.78c.59,1,24.54-15.83,25.26-14.58.62,1.06-26.35,14.65-25.76,15.66s26.23-16.89,27-15.58c.65,1.13-29.3,20.12-28.62,21.29.8,1.39,33.5-21.32,34.36-19.84s-35.75,23-34.83,24.56,38.16-24.33,39.16-22.6-39.79,25.49-38.82,27.17c1.13,2,41.47-26.5,42.58-24.59s-43.55,23.23-42.49,25.06,41.87-26.42,42.85-24.74c.87,1.51-43.89,23-42.8,24.93s41.77-26.83,43-24.79c.91,1.57-43.16,26.54-42,28.49s43.56-27.86,44.74-25.83c1,1.74-45.32,25.21-44.17,27.22s44-28.06,45.16-26.07c1,1.7-45.33,26.37-44.21,28.32,1,1.69,44.46-28.39,45.64-26.35,1,1.67-46.06,25.68-45,27.51s44.53-28.41,45.7-26.39c1,1.68-46.41,25.14-45.48,26.75,1.2,2.08,44.68-28.16,45.7-26.39s-44.34,28.16-43.42,29.76c1,1.75,44.07-28,45.19-26.09,1,1.74-44.68,26.12-43.69,27.84,1.13,1.95,43.29-27.74,44.48-25.68,1,1.74-45.34,24.14-44.4,25.77s43.31-27.59,44.43-25.66-44,25.25-42.89,27.17c.93,1.61,42.3-27,43.4-25.06s-43.54,24-42.46,25.88c.91,1.59,41.64-26.63,42.76-24.69.9,1.57-43.64,23-42.56,24.87.92,1.59,41.44-26.63,42.61-24.6.91,1.59-41.46,24.52-40.55,26.1,1.1,1.9,39.73-25.32,40.75-23.54.82,1.42-40.28,22.92-39.39,24.45,1.07,1.86,38.56-24.49,39.52-22.82s-35.62,23.62-34.84,25,33.46-21.44,34.38-19.84c.78,1.34-33.63,19.07-32.89,20.36.91,1.56,31.68-20.34,32.57-18.8.76,1.31-30,18.27-29.28,19.55s27.58-17.59,28.3-16.34c.61,1-23.58,15.78-23,16.73s20.21-13,20.79-12c.45.8-18.83,11-18.37,11.81s16.6-10.59,17-9.83c.25.43-8.76,7.17-8.56,7.53s2.56-1.77,2.68-1.55" style="fill: none; stroke: rgb(38, 50, 56); stroke-linecap: round; stroke-linejoin: round; stroke-width: 0.72px; transform-origin: 181.081px 166.199px;" id="elym8rhxxrge" class="animable"></path><rect x="167.6" y="159.32" width="5.78" height="18.67" style="fill: rgb(255, 255, 255); transform-origin: 170.49px 168.655px;" id="el5vkk531utf" class="animable"></rect><path d="M170.46,156.88a3.45,3.45,0,1,0-3.41-3.45A3.44,3.44,0,0,0,170.46,156.88Z" style="fill: rgb(255, 255, 255); transform-origin: 170.5px 153.43px;" id="elvbwiot7kl1" class="animable"></path><path d="M182.62,168.19c0-2.63,1.2-4.19,3.52-4.19,2.12,0,3.14,1.5,3.14,4.19V178H195V166.17c0-5-2.83-7.42-6.79-7.42a6.49,6.49,0,0,0-5.62,3.08v-2.51h-5.55V178h5.55Z" style="fill: rgb(255, 255, 255); transform-origin: 186.02px 168.375px;" id="elzcixp3dj0q" class="animable"></path><path d="M125.67,204.58c.12.22,2.57-1.74,2.68-1.55s-6.37,4.39-6.2,4.69c.3.52,10.65-6.89,11-6.33s-15,10.31-14.56,11,19.9-12.84,20.49-11.83-23.39,15.41-22.77,16.5c.75,1.29,27.27-17.44,28-16.17.63,1.08-28.9,16-28.3,17,.79,1.37,28.46-18.1,29.19-16.85S114.85,217.64,115.62,219s29.83-19.07,30.63-17.69-32.44,21.58-31.64,23c1,1.73,35.9-22.71,36.76-21.23S113.7,224.58,114.49,226c.92,1.58,37.4-23.91,38.4-22.17.86,1.49-39.1,23.93-38.29,25.33s40.05-25.33,41-23.67c1.08,1.87-41.5,25.6-40.49,27.34,1.17,2,42.29-26.94,43.39-25,.94,1.64-43.68,26.1-42.73,27.75S159.47,208,160.44,209.7s-44.91,26-43.86,27.78,44.14-28.09,45.27-26.14-45.26,26.77-44.32,28.39c1.25,2.16,44.68-28.15,45.69-26.39s-45.83,26.06-44.87,27.73c1.16,2,44.68-28.16,45.71-26.39S119.25,242.17,120.29,244c1.23,2.14,44.29-27.84,45.27-26.13,1.15,2-44.43,26.47-43.3,28.43,1,1.76,43.11-27.66,44.31-25.58,1,1.68-43.16,25.94-42.27,27.47,1.07,1.84,41.87-26.62,42.93-24.78,1,1.69-43.43,23.51-42.46,25.2S166.3,222.16,167.36,224c.9,1.57-41.88,24.07-40.83,25.87.92,1.6,40.12-25.2,41-23.68s-38.82,23.87-37.84,25.57,37.09-23.31,37.91-21.88-34.38,22.21-33.53,23.68,32-20.56,32.89-19c.77,1.35-29.46,18.68-28.71,20s26.84-16.94,27.46-15.86-26.73,15-26.15,16,25-16,25.65-14.81c.41.71-16.53,13.27-16.07,14.07.34.58,10.47-6.73,10.77-6.22.13.24-6.28,4.35-6.13,4.6s2.56-1.76,2.68-1.54" style="fill: none; stroke: rgb(38, 50, 56); stroke-linecap: round; stroke-linejoin: round; stroke-width: 0.72px; transform-origin: 141.046px 227.624px;" id="el6k8c459txtt" class="animable"></path><path d="M141.07,215.11c4.09,0,4.57,0,6.19.09a8.84,8.84,0,0,1,2.84.52,4.8,4.8,0,0,1,1.76,1.15,4.65,4.65,0,0,1,1.14,1.76,8.49,8.49,0,0,1,.53,2.84c.08,1.62.09,2.1.09,6.19s0,4.57-.09,6.18a8.51,8.51,0,0,1-.53,2.85,4.65,4.65,0,0,1-1.14,1.76,4.91,4.91,0,0,1-1.76,1.14,8.49,8.49,0,0,1-2.84.53c-1.62.07-2.1.09-6.19.09s-4.57,0-6.19-.09a8.49,8.49,0,0,1-2.84-.53,4.91,4.91,0,0,1-1.76-1.14,4.78,4.78,0,0,1-1.14-1.76,8.51,8.51,0,0,1-.53-2.85c-.07-1.61-.09-2.09-.09-6.18s0-4.57.09-6.19a8.49,8.49,0,0,1,.53-2.84,5.07,5.07,0,0,1,2.9-2.91,8.84,8.84,0,0,1,2.84-.52c1.62-.08,2.1-.09,6.19-.09m0-2.76c-4.16,0-4.68,0-6.31.09a11.68,11.68,0,0,0-3.72.71,7.56,7.56,0,0,0-2.71,1.77,7.44,7.44,0,0,0-1.76,2.71,11.32,11.32,0,0,0-.72,3.72c-.07,1.63-.09,2.15-.09,6.31s0,4.68.09,6.31a11.38,11.38,0,0,0,.72,3.72,7.77,7.77,0,0,0,4.47,4.47,11.38,11.38,0,0,0,3.72.72c1.63.07,2.15.09,6.31.09s4.68,0,6.31-.09a11.38,11.38,0,0,0,3.72-.72,7.53,7.53,0,0,0,2.71-1.76,7.69,7.69,0,0,0,1.77-2.71,11.68,11.68,0,0,0,.71-3.72c.07-1.63.09-2.15.09-6.31s0-4.68-.09-6.31a11.62,11.62,0,0,0-.71-3.72,7.88,7.88,0,0,0-4.48-4.48,11.68,11.68,0,0,0-3.72-.71c-1.63-.07-2.15-.09-6.31-.09" style="fill: rgb(255, 255, 255); transform-origin: 141.07px 227.66px;" id="elc70otuu5bsb" class="animable"></path><path d="M141.07,219.8a7.86,7.86,0,1,0,7.86,7.86,7.86,7.86,0,0,0-7.86-7.86m0,13a5.1,5.1,0,1,1,5.1-5.1,5.1,5.1,0,0,1-5.1,5.1" style="fill: rgb(255, 255, 255); transform-origin: 141.07px 227.66px;" id="elqebxvo2pie" class="animable"></path><path d="M151.08,219.49a1.84,1.84,0,1,1-1.84-1.84,1.83,1.83,0,0,1,1.84,1.84" style="fill: rgb(255, 255, 255); transform-origin: 149.24px 219.49px;" id="elugxrv8f15u" class="animable"></path></g><defs>     <filter id="active" height="200%">         <feMorphology in="SourceAlpha" result="DILATED" operator="dilate" radius="2"></feMorphology>                <feFlood flood-color="#32DFEC" flood-opacity="1" result="PINK"></feFlood>        <feComposite in="PINK" in2="DILATED" operator="in" result="OUTLINE"></feComposite>        <feMerge>            <feMergeNode in="OUTLINE"></feMergeNode>            <feMergeNode in="SourceGraphic"></feMergeNode>        </feMerge>    </filter>    <filter id="hover" height="200%">        <feMorphology in="SourceAlpha" result="DILATED" operator="dilate" radius="2"></feMorphology>                <feFlood flood-color="#ff0000" flood-opacity="0.5" result="PINK"></feFlood>        <feComposite in="PINK" in2="DILATED" operator="in" result="OUTLINE"></feComposite>        <feMerge>            <feMergeNode in="OUTLINE"></feMergeNode>            <feMergeNode in="SourceGraphic"></feMergeNode>        </feMerge>            <feColorMatrix type="matrix" values="0   0   0   0   0                0   1   0   0   0                0   0   0   0   0                0   0   0   1   0 "></feColorMatrix>    </filter></defs><defs><clipPath id="freepik--clip-path--inject-142"><rect x="81.14" y="249.36" width="56.65" height="110.48" style="fill:none"></rect></clipPath><clipPath id="freepik--clip-path-2--inject-142"><path d="M363.58,326.86s-25.18-11.75-50.08-21-49.8-16.79-78.89-14.83c0,0-18.19,4.76-43.37,17.63S151.8,333,143.68,342s-9,18.18-9,18.18H164l28.08-10.62,3.32,10.62H312.66l-2.8-16.22,22.94,9.23Z" style="fill:#F4CB3C;stroke:#263238;stroke-linecap:round;stroke-linejoin:round"></path></clipPath><clipPath id="freepik--clip-path-3--inject-142"><path d="M222.58,303.92s2,16.51,4.47,25.46,5,11.19,5,11.19l7.55-6.43,2,5.87,9,3.64,7-7.56-1.68-5.87,12,5.87s-1.12-17.62-4.76-30.49S247.76,288,237.4,291.89A29.87,29.87,0,0,0,222.58,303.92Z" style="fill:#fff;stroke:#263238;stroke-linecap:round;stroke-linejoin:round"></path></clipPath><clipPath id="freepik--clip-path-4--inject-142"><path d="M238,327.7s9.24,17.35,12.59,15.95,4.76-19,4.76-19A42.37,42.37,0,0,1,238,327.7Z" style="fill:none;stroke:#263238;stroke-linecap:round;stroke-linejoin:round"></path></clipPath><clipPath id="freepik--clip-path-5--inject-142"><path d="M199.75,349.71s8.4-2,11.19-.28,1.12,12.87-.27,14.55-4.2,1.68-4.2-1.4a30.84,30.84,0,0,1,.84-6.43h-4.48Z" style="fill:#fff;stroke:#263238;stroke-linecap:round;stroke-linejoin:round"></path></clipPath><clipPath id="freepik--clip-path-6--inject-142"><path d="M195,353.07a53.41,53.41,0,0,1-3.92,7c-1.68,2.24-6.43,5.88-7,9.8s7.55,8.11,11.19,8.67,9.79-4.2,11.19-4.76,3.08-1.4,1.12-5.59S195,353.07,195,353.07Z" style="fill:#fff;stroke:#263238;stroke-linecap:round;stroke-linejoin:round"></path></clipPath><clipPath id="freepik--clip-path-7--inject-142"><path d="M195,348.3a4,4,0,0,1,6.19,1.32c2.64,5.13,8.11,15.89,8.11,17.16,0,1.68.28,4.19-2.8,2.24s-9.51-10.63-11.19-13.15C194.09,354.08,192.76,350.33,195,348.3Z" style="fill:#fff;stroke:#263238;stroke-linecap:round;stroke-linejoin:round"></path></clipPath><clipPath id="freepik--clip-path-8--inject-142"><path d="M363.82,326.19c-19.15-2.81-22.71,13.7-33.84,27.16-8.51,10.28-15.88,14.41-18.89,15.79-3.65-2.6-8-5.38-10.59-6.05-5.15-1.33-6.64,1.33-8.8,3.49s-17.12,11-17.95,12.63,1.16,2,2.49,2.16,5.82-1.5,5.82-1.5-4,1.83-3,3.16,10.13-1.17,13.29-2.33c0,0-8.31,3.82-7.81,5.15s3.49.83,5.48.33,12.8-4.32,12.8-4.32-8,3.66-10,4.82,1,2,2.49,2,8.64-3.33,11.8-4.32S317,383,321.44,380.7a19.14,19.14,0,0,0,4.37-3c9.06-4.84,35.84-19.95,42.32-31.09C375.27,334.32,373.73,327.65,363.82,326.19Z" style="fill:#fff;stroke:#263238;stroke-linecap:round;stroke-linejoin:round"></path></clipPath></defs></svg>